<?xml version="1.0" encoding="UTF-8" standalone="no"?>
<svg
   xmlns:dc="http://purl.org/dc/elements/1.1/"
   xmlns:cc="http://creativecommons.org/ns#"
   xmlns:rdf="http://www.w3.org/1999/02/22-rdf-syntax-ns#"
   xmlns:svg="http://www.w3.org/2000/svg"
   xmlns="http://www.w3.org/2000/svg"
   xmlns:xlink="http://www.w3.org/1999/xlink"
   xmlns:sodipodi="http://sodipodi.sourceforge.net/DTD/sodipodi-0.dtd"
   xmlns:inkscape="http://www.inkscape.org/namespaces/inkscape"
   id="svg2"
   sodipodi:docname="4Wheat48.svg"
   inkscape:export-filename="/home/djo/Faith/thebeginning.life/thebeginning-life.github.io/content/images/logo-48.png"
   viewBox="0 0 999.99947 1001.0705"
   sodipodi:version="0.32"
   inkscape:export-xdpi="4.6079998"
   version="1.0"
   inkscape:output_extension="org.inkscape.output.svg.inkscape"
   inkscape:export-ydpi="4.6079998"
   inkscape:version="1.0.1 (3bc2e813f5, 2020-09-07)"
   width="999.99945"
   height="1001.0704">
  <defs
     id="defs4">
    <linearGradient
       inkscape:collect="always"
       id="linearGradient1068">
      <stop
         style="stop-color:#93ac9d;stop-opacity:1"
         offset="0"
         id="stop1064" />
      <stop
         style="stop-color:#ffffff;stop-opacity:1"
         offset="1"
         id="stop1066" />
    </linearGradient>
    <linearGradient
       id="linearGradient2466"
       y2="304.85001"
       gradientUnits="userSpaceOnUse"
       x2="222.23"
       y1="367.48001"
       x1="239.41"
       inkscape:collect="always">
      <stop
         id="stop2389"
         style="stop-color:#e2c86a"
         offset="0" />
      <stop
         id="stop2391"
         style="stop-color:#fffe4f"
         offset="1" />
    </linearGradient>
    <linearGradient
       inkscape:collect="always"
       xlink:href="#linearGradient2466"
       id="linearGradient290"
       gradientUnits="userSpaceOnUse"
       x1="239.41"
       y1="367.48001"
       x2="222.23"
       y2="304.85001"
       gradientTransform="matrix(2.4712316,0.66698606,-0.77923236,1.4927452,680.8183,-515.59097)" />
    <linearGradient
       inkscape:collect="always"
       xlink:href="#linearGradient1068"
       id="linearGradient1070"
       x1="310.59201"
       y1="1012.9247"
       x2="991.38379"
       y2="-7.3294005"
       gradientUnits="userSpaceOnUse"
       gradientTransform="translate(3.0392906e-6)" />
    <linearGradient
       inkscape:collect="always"
       xlink:href="#linearGradient2466"
       id="linearGradient1890"
       gradientUnits="userSpaceOnUse"
       gradientTransform="matrix(2.513305,0.57677457,-0.63046613,1.529866,623.71705,-506.73916)"
       x1="239.41"
       y1="367.48001"
       x2="222.23"
       y2="304.85001" />
    <linearGradient
       inkscape:collect="always"
       xlink:href="#linearGradient2466"
       id="linearGradient1894"
       gradientUnits="userSpaceOnUse"
       gradientTransform="matrix(2.5543834,0.45725056,-0.43505127,1.5697331,495.73629,-418.89242)"
       x1="239.41"
       y1="367.48001"
       x2="222.23"
       y2="304.85001" />
    <linearGradient
       inkscape:collect="always"
       xlink:href="#linearGradient2466"
       id="linearGradient1898"
       gradientUnits="userSpaceOnUse"
       gradientTransform="matrix(2.5135811,0.57613724,-0.62941742,1.5301147,510.86143,-360.365)"
       x1="239.41"
       y1="367.48001"
       x2="222.23"
       y2="304.85001" />
    <linearGradient
       inkscape:collect="always"
       xlink:href="#linearGradient2466"
       id="linearGradient1902"
       gradientUnits="userSpaceOnUse"
       gradientTransform="matrix(2.5893043,0.24868399,-0.09829445,1.6159526,267.86425,-239.49899)"
       x1="239.41"
       y1="367.48001"
       x2="222.23"
       y2="304.85001" />
    <linearGradient
       inkscape:collect="always"
       xlink:href="#linearGradient2466"
       id="linearGradient1906"
       gradientUnits="userSpaceOnUse"
       gradientTransform="matrix(2.5801551,0.03672119,0.23880132,1.6345718,106.21222,-123.67141)"
       x1="239.41"
       y1="367.48001"
       x2="222.23"
       y2="304.85001" />
    <linearGradient
       inkscape:collect="always"
       xlink:href="#linearGradient2466"
       id="linearGradient1910"
       gradientUnits="userSpaceOnUse"
       gradientTransform="matrix(2.5909758,0.16684328,0.03246106,1.626447,113.31763,-77.763574)"
       x1="239.41"
       y1="367.48001"
       x2="222.23"
       y2="304.85001" />
    <linearGradient
       inkscape:collect="always"
       xlink:href="#linearGradient2466"
       id="linearGradient1914"
       gradientUnits="userSpaceOnUse"
       gradientTransform="matrix(2.5358414,-0.1506543,0.53261927,1.6280221,-89.797365,67.695499)"
       x1="239.41"
       y1="367.48001"
       x2="222.23"
       y2="304.85001" />
    <linearGradient
       inkscape:collect="always"
       xlink:href="#linearGradient2466"
       id="linearGradient1918"
       gradientUnits="userSpaceOnUse"
       gradientTransform="matrix(2.5403542,-0.13656115,0.5106562,1.6292642,-140.04871,137.22495)"
       x1="239.41"
       y1="367.48001"
       x2="222.23"
       y2="304.85001" />
    <linearGradient
       inkscape:collect="always"
       xlink:href="#linearGradient2466"
       id="linearGradient1922"
       gradientUnits="userSpaceOnUse"
       gradientTransform="matrix(-2.5361167,-0.51627709,-0.53132359,1.5513279,1840.8283,-210.47377)"
       x1="239.41"
       y1="367.48001"
       x2="222.23"
       y2="304.85001" />
    <linearGradient
       inkscape:collect="always"
       xlink:href="#linearGradient2466"
       id="linearGradient1926"
       gradientUnits="userSpaceOnUse"
       gradientTransform="matrix(-2.3020027,-0.91193838,-1.1895167,1.3570254,1940.8311,15.399899)"
       x1="239.41"
       y1="367.48001"
       x2="222.23"
       y2="304.85001" />
    <linearGradient
       inkscape:collect="always"
       xlink:href="#linearGradient2466"
       id="linearGradient1930"
       gradientUnits="userSpaceOnUse"
       gradientTransform="matrix(-2.3083487,-0.90464199,-1.1771452,1.3618972,1882.1159,85.318722)"
       x1="239.41"
       y1="367.48001"
       x2="222.23"
       y2="304.85001" />
    <linearGradient
       inkscape:collect="always"
       xlink:href="#linearGradient2466"
       id="linearGradient1934"
       gradientUnits="userSpaceOnUse"
       gradientTransform="matrix(-2.3679471,-0.83060167,-1.0521572,1.4082852,1799.6745,126.69412)"
       x1="239.41"
       y1="367.48001"
       x2="222.23"
       y2="304.85001" />
    <linearGradient
       inkscape:collect="always"
       xlink:href="#linearGradient2466"
       id="linearGradient1938"
       gradientUnits="userSpaceOnUse"
       gradientTransform="matrix(-2.1409304,-1.0696474,-1.4596794,1.2365421,1821.366,309.4455)"
       x1="239.41"
       y1="367.48001"
       x2="222.23"
       y2="304.85001" />
    <linearGradient
       inkscape:collect="always"
       xlink:href="#linearGradient2466"
       id="linearGradient1942"
       gradientUnits="userSpaceOnUse"
       gradientTransform="matrix(-1.861178,-1.2645371,-1.802836,1.0363927,1810.4253,491.13841)"
       x1="239.41"
       y1="367.48001"
       x2="222.23"
       y2="304.85001" />
    <linearGradient
       inkscape:collect="always"
       xlink:href="#linearGradient2466"
       id="linearGradient1946"
       gradientUnits="userSpaceOnUse"
       gradientTransform="matrix(-1.7269058,-1.335692,-1.9318273,0.94290745,1764.5406,610.41769)"
       x1="239.41"
       y1="367.48001"
       x2="222.23"
       y2="304.85001" />
    <linearGradient
       inkscape:collect="always"
       xlink:href="#linearGradient2466"
       id="linearGradient1950"
       gradientUnits="userSpaceOnUse"
       gradientTransform="matrix(-1.6754417,-1.3600695,-1.9766492,0.90740995,1710.7817,700.49309)"
       x1="239.41"
       y1="367.48001"
       x2="222.23"
       y2="304.85001" />
  </defs>
  <sodipodi:namedview
     id="base"
     bordercolor="#666666"
     inkscape:pageshadow="2"
     guidetolerance="10"
     pagecolor="#ffffff"
     gridtolerance="10000"
     inkscape:window-height="1491"
     inkscape:zoom="0.9899495"
     objecttolerance="10"
     showgrid="false"
     borderopacity="1.0"
     inkscape:current-layer="layer1"
     inkscape:cx="188.01618"
     inkscape:cy="487.63945"
     inkscape:window-y="91"
     inkscape:window-x="254"
     inkscape:window-width="2109"
     showborder="true"
     inkscape:pageopacity="0.0"
     inkscape:document-units="px"
     inkscape:document-rotation="0"
     inkscape:window-maximized="0" />
  <g
     id="layer1"
     inkscape:label="Layer 1"
     inkscape:groupmode="layer"
     transform="translate(-163.11,-11.889)">
    <g
       id="g992"
       inkscape:export-filename="/home/djo/Faith/thebeginning.life/thebeginning-life.github.io/public/logos/logo-48.png"
       inkscape:export-xdpi="4.6079998"
       inkscape:export-ydpi="4.6079998">
      <rect
         style="fill:url(#linearGradient1070);fill-opacity:1;fill-rule:evenodd;stroke:#000000;stroke-width:1.069;stroke-miterlimit:4;stroke-dasharray:none;stroke-opacity:1"
         id="rect87"
         width="998.93127"
         height="998.93073"
         x="163.64407"
         y="12.423639" />
      <g
         id="g2275"
         transform="matrix(1.3482659,-0.47758862,0.45106527,1.0110612,-683.32424,539.03946)"
         style="stroke-width:8.68607;stroke-miterlimit:4;stroke-dasharray:none">
        <path
           id="path252"
           inkscape:tile-x0="209.625"
           style="fill:url(#linearGradient290);fill-rule:evenodd;stroke:#000000;stroke-width:8.68607;stroke-miterlimit:4;stroke-dasharray:none"
           d="m 1031.4306,29.822401 c -10.329,11.739308 -20.6996,23.45036 -30.9128,35.237936 -9.15817,10.522563 -18.48148,20.983513 -27.61493,31.512746 -1.28527,1.219903 -2.02556,2.638019 -3.05458,3.961157 -1.3919,1.20817 -3.04789,2.32805 -3.74517,3.82587 -1.37879,1.39905 -2.82391,2.76317 -4.17022,4.15396 -2.84461,2.91082 -5.97933,5.67526 -8.82395,8.58611 -2.27287,2.24769 -4.52106,4.50204 -6.56239,6.84629 -5.5254,5.83185 -11.30703,11.56048 -16.69974,17.46223 -1.41992,2.01806 -2.80743,4.02787 -4.1533,6.06592 -1.02524,3.04426 -2.14022,6.09834 -2.14715,9.29823 -0.27853,3.45017 0.41827,6.97624 1.9395,10.43529 0.87894,1.71889 1.66818,3.44762 2.79156,5.13031 1.70423,2.94645 4.02741,5.78745 7.06299,8.34387 2.24858,2.17371 4.65968,4.30613 7.6116,6.15873 2.02305,1.36351 4.03053,2.75685 6.47081,3.80719 4.25897,2.10321 8.7025,4.0689 13.43056,5.65156 3.16447,0.90528 6.40828,1.71256 9.72728,2.26776 2.72994,0.54947 5.5454,0.6111 8.32321,0.79882 2.69453,0.13118 5.4957,0.27411 8.01167,-0.17083 3.57843,-0.48179 7.06175,-1.15954 10.26658,-2.16794 2.28687,-0.76223 4.41507,-1.65248 6.47557,-2.62911 2.7834,-1.17322 5.0333,-2.72883 6.9268,-4.46581 2.0574,-1.72682 3.6517,-3.64673 5.1055,-5.62161 1.3955,-1.7011 1.7531,-3.68232 2.1939,-5.607 0.2055,-1.85196 0.173,-3.73409 -0.26,-5.60513 -0.3864,-2.28422 -1.4023,-4.55098 -2.7926,-6.7485 -1.1067,-1.98474 -2.6698,-3.9053 -4.1185,-5.82907 -2.8919,-3.64168 -6.369,-7.13471 -9.5288,-10.69542 -1.7504,-1.88596 -3.5085,-3.75699 -5.05602,-5.70741 -1.46312,-2.16609 -2.33205,-4.44428 -3.48571,-6.66307 -1.12917,-2.53579 -2.26614,-5.05665 -3.25618,-7.58892 -0.98912,-3.12811 -1.57776,-6.26732 -2.27301,-9.41831 -0.48554,-2.63454 -0.30785,-5.24336 -0.43317,-7.86582 0.0334,-4.38486 0.19823,-8.75134 0.77265,-13.092371 0.35135,-3.481596 0.73521,-6.971442 1.11127,-10.446376 0.51897,-1.750329 0.81554,-3.560677 2.00955,-5.145841 7.26864,-10.52163 15.11482,-20.853323 22.72162,-31.266635 5.167,-7.035593 10.3417,-14.086095 15.5334,-21.115025 0.2544,-0.595518 0.5168,-1.205917 0.779,-1.816377 z"
           sodipodi:nodetypes="ccccccccccc"
           inkscape:tile-w="39.506181"
           inkscape:tile-h="108.72521"
           inkscape:tile-cx="229.37809"
           inkscape:tile-cy="318.95635"
           inkscape:tile-y0="264.59375" />
        <path
           id="use254"
           inkscape:tile-x0="209.625"
           style="fill:url(#linearGradient1890);fill-rule:evenodd;stroke:#000000;stroke-width:8.68607;stroke-miterlimit:4;stroke-dasharray:none"
           d="m 1023.1871,28.171444 c -9.1227,12.190367 -18.2893,24.353894 -27.2927,36.588401 -8.07776,10.923066 -16.32513,21.790459 -24.37775,32.719296 -1.15816,1.274801 -1.75697,2.728219 -2.65129,4.097049 -1.26494,1.26704 -2.80001,2.45535 -3.34878,3.98722 -1.23378,1.45838 -2.53658,2.8842 -3.7389,4.33307 -2.54306,3.03343 -5.38762,5.93068 -7.93068,8.9641 -2.03938,2.34525 -4.05361,4.69624 -5.85425,7.12975 -4.92272,6.07085 -10.10929,12.04768 -14.89383,18.18374 -1.21563,2.08214 -2.39997,4.15472 -3.54022,6.25417 -0.72678,3.09858 -1.54152,6.21047 -1.24391,9.42693 0.0521,3.47826 1.07835,6.9959 2.91552,10.41495 1.03487,1.69436 1.98173,3.402 3.25552,5.0507 1.9698,2.8969 4.54316,5.66437 7.79571,8.11882 2.43596,2.09963 5.02905,4.15157 8.13168,5.9018 2.13526,1.29382 4.25795,2.61822 6.77703,3.58146 4.42223,1.9526 9.01435,3.75999 13.85206,5.17161 3.22322,0.78992 6.51575,1.47855 9.85889,1.91086 2.75857,0.44886 5.5555,0.40415 8.32714,0.48759 2.68371,0.0298 5.47423,0.0673 7.92613,-0.47518 3.50153,-0.61979 6.89033,-1.43293 9.97143,-2.56785 2.1946,-0.85276 4.2197,-1.82815 6.1694,-2.88781 2.6477,-1.28462 4.7301,-2.93339 6.442,-4.75095 1.8753,-1.81353 3.2731,-3.80364 4.5265,-5.84363 1.2212,-1.76273 1.3875,-3.76748 1.6414,-5.71867 0.028,-1.86918 -0.1837,-3.75968 -0.791,-5.62383 -0.6005,-2.28122 -1.8232,-4.52104 -3.4106,-6.67708 -1.2859,-1.95293 -3.0182,-3.82408 -4.6374,-5.70275 -3.2134,-3.5507 -6.9927,-6.92984 -10.4639,-10.38898 -1.9147,-1.82926 -3.8356,-3.64322 -5.5553,-5.54496 -1.65654,-2.12169 -2.73473,-4.37858 -4.08948,-6.56498 -1.36067,-2.50592 -2.72763,-4.99653 -3.95003,-7.50422 -1.27819,-3.10656 -2.16038,-6.23948 -3.14942,-9.38019 -0.73199,-2.62955 -0.80403,-5.25839 -1.1778,-7.88948 -0.38403,-4.40847 -0.63611,-8.80341 -0.47968,-13.18832 0.0171,-3.512641 0.0656,-7.034823 0.10775,-10.541691 0.34796,-1.778894 0.46974,-3.609711 1.50257,-5.248192 6.20472,-10.850543 12.99999,-21.532085 19.55029,-32.28657 4.4529,-7.267128 8.9119,-14.54961 13.39,-21.810967 0.1956,-0.608163 0.3975,-1.231661 0.5994,-1.855147 z"
           sodipodi:nodetypes="ccccccccccc"
           inkscape:tile-y0="264.59375" />
        <path
           id="use256"
           inkscape:tile-x0="209.625"
           style="fill:url(#linearGradient1894);fill-rule:evenodd;stroke:#000000;stroke-width:8.68607;stroke-miterlimit:4;stroke-dasharray:none"
           d="m 956.18726,99.637072 c -7.51698,12.708538 -15.08079,25.392208 -22.47441,38.139288 -6.64017,11.38262 -13.45478,22.71756 -20.06934,34.10478 -0.98775,1.33898 -1.40093,2.83027 -2.11649,4.25092 -1.0943,1.3364 -2.46519,2.6068 -2.81926,4.17454 -1.03998,1.52735 -2.15222,3.02531 -3.16231,4.54153 -2.14024,3.17572 -4.59519,6.22919 -6.73547,9.4049 -1.72707,2.45885 -3.42863,4.92224 -4.90897,7.45818 -4.11859,6.34746 -8.50945,12.61326 -12.48347,19.01954 -0.94541,2.15391 -1.86109,4.29665 -2.72994,6.46425 -0.3375,3.15243 -0.7603,6.32254 -0.0711,9.54341 0.47879,3.49627 1.92504,6.98447 4.16047,10.33384 1.23075,1.65374 2.3762,3.32516 3.83743,4.92128 2.30234,2.81766 5.1852,5.4756 8.70073,7.78545 2.66505,1.99286 5.4795,3.93009 8.76035,5.53891 2.26894,1.19701 4.52919,2.4254 7.13676,3.27113 4.60969,1.74782 9.36943,3.34128 14.32325,4.52461 3.28209,0.63694 6.62019,1.16858 9.97683,1.43992 2.78105,0.31658 5.53934,0.13481 8.28839,0.0832 2.65556,-0.1013 5.41764,-0.20002 7.77384,-0.86566 3.38393,-0.79473 6.63262,-1.7784 9.53783,-3.07072 2.06385,-0.96513 3.94507,-2.04533 5.74152,-3.2066 2.45847,-1.42171 4.31373,-3.18208 5.78203,-5.09408 1.63027,-1.91598 2.76707,-3.9862 3.75494,-6.09954 0.99015,-1.83287 0.90824,-3.85758 0.91941,-5.8327 -0.20238,-1.88156 -0.64342,-3.77289 -1.47251,-5.61834 -0.8736,-2.26531 -2.35702,-4.45856 -4.19043,-6.54969 -1.51065,-1.90155 -3.45229,-3.69902 -5.28306,-5.50958 -3.61157,-3.41449 -7.76122,-6.62872 -11.61627,-9.93849 -2.11668,-1.74641 -4.23768,-3.47713 -6.17063,-5.30599 -1.89758,-2.05319 -3.24024,-4.27066 -4.84755,-6.40371 -1.65241,-2.45416 -3.30913,-4.89262 -4.82513,-7.35532 -1.64469,-3.06237 -2.9013,-6.17063 -4.26448,-9.2815 -1.04634,-2.60928 -1.44049,-5.25011 -2.13306,-7.87845 -0.92105,-4.41571 -1.71006,-8.82427 -2.09418,-13.24271 -0.41465,-3.5342 -0.79942,-7.07956 -1.18856,-10.60917 0.12527,-1.80644 0.0207,-3.65401 0.84001,-5.35267 4.79819,-11.21807 10.20074,-22.29501 15.35218,-33.43337 3.50731,-7.52784 7.01904,-15.07137 10.55188,-22.59463 0.11857,-0.62135 0.24153,-1.25839 0.36445,-1.895428 z"
           sodipodi:nodetypes="ccccccccccc"
           inkscape:tile-y0="264.59375" />
        <path
           id="use258"
           inkscape:tile-x0="209.625"
           style="fill:url(#linearGradient1898);fill-rule:evenodd;stroke:#000000;stroke-width:8.68607;stroke-miterlimit:4;stroke-dasharray:none"
           d="m 910.67126,174.46782 c -9.11414,12.19345 -18.27229,24.36006 -27.26708,36.5976 -8.07011,10.9258 -16.30986,21.79596 -24.35486,32.72752 -1.15724,1.27518 -1.75493,2.72886 -2.64833,4.09801 -1.26402,1.26744 -2.79824,2.45621 -3.34596,3.98832 -1.23277,1.45878 -2.53455,2.88504 -3.73586,4.33428 -2.54089,3.03427 -5.38342,5.93243 -7.92435,8.96669 -2.0377,2.34591 -4.0503,4.69758 -5.84923,7.13169 -4.91845,6.07249 -10.10079,12.05101 -14.88104,18.18866 -1.21413,2.0826 -2.39698,4.15561 -3.53591,6.25543 -0.72467,3.09894 -1.53731,6.21121 -1.23757,9.42776 0.0544,3.47845 1.08298,6.996 2.92236,10.41475 1.03594,1.69416 1.98393,3.40165 3.25875,5.05009 1.97165,2.89654 4.54675,5.66346 7.80078,8.11719 2.43726,2.09908 5.03162,4.15044 8.13525,5.89995 2.13606,1.2933 4.25953,2.61722 6.77914,3.57985 4.42334,1.95151 9.01647,3.75778 13.85492,5.16819 3.22362,0.78912 6.51646,1.4769 9.85974,1.90834 2.75876,0.44815 5.55553,0.4027 8.32711,0.48542 2.68362,0.0291 5.47403,0.0659 7.92547,-0.47732 3.50101,-0.62075 6.88903,-1.43485 9.96929,-2.57063 2.19395,-0.8534 4.21826,-1.82938 6.16721,-2.8896 2.64666,-1.28539 4.72795,-2.93481 6.43856,-4.75291 1.87396,-1.81415 3.27042,-3.80473 4.52237,-5.84516 1.21994,-1.76316 1.38497,-3.76805 1.63753,-5.71941 0.0263,-1.86929 -0.18623,-3.75983 -0.79472,-5.6239 -0.60198,-2.28119 -1.82616,-4.52082 -3.41488,-6.67656 -1.28721,-1.95268 -3.02069,-3.82347 -4.64102,-5.7018 -3.21566,-3.55004 -6.99706,-6.92835 -10.47046,-10.38676 -1.91575,-1.82884 -3.8378,-3.64238 -5.55872,-5.54377 -1.65789,-2.12137 -2.73752,-4.37809 -4.09368,-6.56424 -1.36228,-2.5057 -2.73083,-4.99608 -3.95486,-7.50358 -1.28021,-3.10639 -2.16446,-6.23923 -3.15556,-9.37985 -0.73371,-2.6295 -0.80751,-5.25845 -1.183,-7.88959 -0.38696,-4.4086 -0.64196,-8.8037 -0.48846,-13.18889 0.0147,-3.51282 0.0609,-7.0352 0.10071,-10.54228 0.34674,-1.77909 0.4673,-3.61002 1.49899,-5.24885 6.1972,-10.85278 12.98506,-21.53668 19.52784,-32.29349 4.44773,-7.26874 8.90193,-14.55274 13.37489,-21.81569 0.19526,-0.60825 0.3967,-1.23183 0.59817,-1.8554 z"
           sodipodi:nodetypes="ccccccccccc"
           inkscape:tile-y0="264.59375" />
        <path
           id="use260"
           inkscape:tile-x0="209.625"
           style="fill:url(#linearGradient1902);fill-rule:evenodd;stroke:#000000;stroke-width:8.68607;stroke-miterlimit:4;stroke-dasharray:none"
           d="m 825.32052,244.26598 c -4.69651,13.41353 -9.44383,26.80594 -14.01186,40.24807 -4.1161,12.00643 -8.41245,23.97928 -12.50265,35.98821 -0.68597,1.42948 -0.77921,2.96466 -1.18242,4.45379 -0.7906,1.43568 -1.86481,2.82789 -1.88453,4.43512 -0.69781,1.62339 -1.47222,3.22318 -2.14315,4.83289 -1.42925,3.37357 -3.19122,6.65018 -4.62052,10.02375 -1.17495,2.61783 -2.32403,5.23813 -3.24201,7.91314 -2.70125,6.72974 -5.68537,13.39982 -8.23324,20.17681 -0.47511,2.24618 -0.92352,4.47867 -1.32106,6.7323 0.32618,3.20083 0.57273,6.42654 1.91565,9.61125 1.19475,3.47931 3.33245,6.87039 6.21188,10.0564 1.54573,1.56254 3.01184,3.14995 4.77064,4.63544 2.83418,2.64529 6.20195,5.08174 10.11511,7.11547 3.01676,1.78509 6.16786,3.50183 9.70604,4.84939 2.46445,1.01688 4.92693,2.06609 7.64898,2.70137 4.86466,1.37738 9.84367,2.58706 14.92689,3.36782 3.33723,0.36929 6.70727,0.62795 10.04127,0.62307 2.78135,0.0883 5.43685,-0.32304 8.11038,-0.60265 2.57194,-0.32187 5.24838,-0.64996 7.41061,-1.51505 3.13892,-1.08012 6.10642,-2.33923 8.67439,-3.88051 1.81447,-1.14231 3.42668,-2.38532 4.93928,-3.70289 2.1048,-1.63454 3.55019,-3.55996 4.58621,-5.60599 1.1934,-2.06339 1.87271,-4.24122 2.39776,-6.45008 0.58562,-1.92677 0.0845,-3.95784 -0.31544,-5.94672 -0.58901,-1.87702 -1.41304,-3.7441 -2.60645,-5.53286 -1.32422,-2.20768 -3.22887,-4.29232 -5.45406,-6.2452 -1.87056,-1.7888 -4.14034,-3.43715 -6.30456,-5.10786 -4.23667,-3.13756 -8.95712,-6.02902 -13.40978,-9.04103 -2.43004,-1.58247 -4.86107,-3.14878 -7.1289,-4.82944 -2.27992,-1.90938 -4.05218,-4.03006 -6.06529,-6.04385 -2.12395,-2.33325 -4.24883,-4.65034 -6.24134,-7.00349 -2.24293,-2.94606 -4.11644,-5.97044 -6.09456,-8.98862 -1.56443,-2.53956 -2.49858,-5.1649 -3.72152,-7.75296 -1.81784,-4.3681 -3.50522,-8.73993 -4.79935,-13.15526 -1.14,-3.52282 -2.25313,-7.0593 -3.36728,-10.57963 -0.2534,-1.82852 -0.73981,-3.67944 -0.29314,-5.45697 2.35177,-11.68827 5.32301,-23.28453 8.03628,-34.92181 1.85888,-7.86716 3.7188,-15.75048 5.60356,-23.61516 -0.0135,-0.6352 -0.0259,-1.28655 -0.0384,-1.9379 z"
           sodipodi:nodetypes="ccccccccccc"
           inkscape:tile-y0="264.59375" />
        <path
           id="use262"
           inkscape:tile-x0="209.625"
           style="fill:url(#linearGradient1906);fill-rule:evenodd;stroke:#000000;stroke-width:8.68607;stroke-miterlimit:4;stroke-dasharray:none"
           d="m 750.83266,317.25816 c -1.80744,13.88819 -3.66889,27.75929 -5.34496,41.66565 -1.53215,12.42405 -3.24727,24.82917 -4.75363,37.2536 -0.3738,1.49535 -0.14674,3.04821 -0.232,4.58029 -0.47456,1.51025 -1.23532,3.0001 -0.9215,4.61943 -0.34513,1.69149 -0.76995,3.36557 -1.09165,5.04108 -0.69682,3.51342 -1.73867,6.95668 -2.43555,10.47009 -0.60505,2.73179 -1.18432,5.46391 -1.5266,8.23202 -1.24368,6.99635 -2.77598,13.95597 -3.86011,20.9872 10e-4,2.29998 0.026,4.58397 0.1047,6.88505 0.98167,3.19475 1.89076,6.4211 3.86203,9.51576 1.88758,3.40339 4.67776,6.6402 8.14981,9.60941 1.83323,1.44521 3.59387,2.92202 5.61922,4.27209 3.31581,2.42872 7.10947,4.60322 11.35228,6.3274 3.3159,1.54788 6.74882,3.01586 10.48331,4.08033 2.61741,0.82018 5.2395,1.67316 8.02941,2.08801 5.03602,0.98511 10.149,1.79192 15.27488,2.15848 3.33554,0.0964 6.6802,0.0788 9.93507,-0.20113 2.73449,-0.14052 5.24253,-0.77361 7.79549,-1.27557 2.44498,-0.53611 4.99075,-1.08712 6.92307,-2.13619 2.84159,-1.34604 5.4787,-2.85811 7.66716,-4.62126 1.5353,-1.29941 2.85222,-2.68347 4.05638,-4.13439 1.71687,-1.81878 2.72946,-3.87596 3.3173,-6.02075 0.73788,-2.17527 0.95016,-4.42327 1.00527,-6.68982 0.17272,-1.9876 -0.7375,-3.99056 -1.5401,-5.95938 -0.96407,-1.84064 -2.15562,-3.6519 -3.69165,-5.35386 -1.75058,-2.11281 -4.04251,-4.05392 -6.62015,-5.83594 -2.19733,-1.64614 -4.75542,-3.11799 -7.21507,-4.62104 -4.78745,-2.80852 -9.99635,-5.32941 -14.9687,-7.99374 -2.70096,-1.39231 -5.39953,-2.76828 -7.96241,-4.27282 -2.62208,-1.73373 -4.79218,-3.72202 -7.17534,-5.58286 -2.55757,-2.17323 -5.11273,-4.33012 -7.54609,-6.53422 -2.80072,-2.78022 -5.25692,-5.66973 -7.814,-8.54438 -2.05392,-2.42704 -3.51009,-4.9924 -5.24057,-7.4964 -2.68023,-4.24658 -5.23384,-8.50767 -7.4124,-12.84496 -1.84315,-3.45171 -3.66288,-6.91939 -5.48026,-10.37071 -0.62629,-1.81951 -1.4848,-3.64233 -1.41685,-5.46829 -0.12491,-11.95828 0.3742,-23.87504 0.61289,-35.81184 0.18539,-8.07166 0.36847,-16.15968 0.57968,-24.23098 -0.14476,-0.63822 -0.29188,-1.29278 -0.43901,-1.94734 z"
           sodipodi:nodetypes="ccccccccccc"
           inkscape:tile-y0="264.59375" />
        <path
           id="use264"
           inkscape:tile-x0="209.625"
           style="fill:url(#linearGradient1910);fill-rule:evenodd;stroke:#000000;stroke-width:8.68607;stroke-miterlimit:4;stroke-dasharray:none"
           d="m 705.76022,390.33716 c -3.58364,13.62501 -7.21944,27.23041 -10.67324,40.88001 -3.1206,12.19289 -6.42288,24.35784 -9.51757,36.55241 -0.56612,1.45795 -0.53509,3.0031 -0.81559,4.51191 -0.66931,1.46759 -1.62417,2.90046 -1.51422,4.51568 -0.56222,1.65312 -1.20238,3.28499 -1.73898,4.92352 -1.14762,3.43472 -2.6334,6.78267 -3.78104,10.21738 -0.95593,2.66738 -1.88598,5.3364 -2.58215,8.05298 -2.1405,6.8469 -4.56662,13.64292 -6.55101,20.53235 -0.29096,2.27161 -0.55651,4.52862 -0.76984,6.80522 0.58146,3.20493 1.08591,6.43739 2.67562,9.59356 1.46631,3.45683 3.8618,6.79483 6.97728,9.90305 1.66053,1.52011 3.24401,3.06777 5.10992,4.50364 3.02699,2.56648 6.56701,4.9061 10.61612,6.82368 3.13906,1.69655 6.406,3.32011 10.02759,4.56043 2.52883,0.94253 5.05832,1.91759 7.81222,2.46848 4.94105,1.22781 9.98216,2.28341 15.09221,2.90483 3.34331,0.26402 6.71029,0.41586 10.02028,0.30414 2.76875,-3.8e-4 5.37232,-0.49873 8.00441,-0.86527 2.5278,-0.40576 5.1589,-0.82111 7.23618,-1.75942 3.02974,-1.18559 5.87489,-2.54551 8.30061,-4.17609 1.70968,-1.20565 3.21044,-2.50596 4.60626,-3.878 1.95835,-1.70941 3.23852,-3.68991 4.10253,-5.77843 1.01878,-2.11102 1.5181,-4.32049 1.86165,-6.55623 0.42638,-1.95429 -0.23467,-3.97854 -0.79184,-5.96363 -0.73589,-1.86667 -1.70435,-3.71584 -3.03329,-5.47451 -1.49251,-2.17527 -3.55146,-4.20836 -5.91804,-6.0988 -2.00131,-1.73699 -4.38765,-3.3201 -6.67102,-4.92905 -4.45919,-3.01607 -9.37889,-5.76941 -14.04243,-8.65244 -2.54022,-1.51178 -5.08008,-3.00731 -7.46709,-4.62294 -2.41746,-1.845 -4.34783,-3.91853 -6.50877,-5.87696 -2.29669,-2.2758 -4.593,-4.53533 -6.7608,-6.83532 -2.46414,-2.88759 -4.5678,-5.86568 -6.77481,-8.83419 -1.75776,-2.50099 -2.8966,-5.10831 -4.31916,-7.66893 -2.15653,-4.32971 -4.18384,-8.66735 -5.82415,-13.06127 -1.41545,-3.50231 -2.80532,-7.01921 -4.19492,-10.51983 -0.39878,-1.82871 -1.03071,-3.67244 -0.73024,-5.47238 1.39437,-11.81674 3.41123,-23.56092 5.16865,-35.33804 1.21253,-7.9625 2.42478,-15.94123 3.66322,-23.90205 -0.0645,-0.63765 -0.1293,-1.29158 -0.19411,-1.94549 z"
           sodipodi:nodetypes="ccccccccccc"
           inkscape:tile-y0="264.59375" />
        <path
           id="use266"
           inkscape:tile-x0="209.625"
           style="fill:url(#linearGradient1914);fill-rule:evenodd;stroke:#000000;stroke-width:8.68607;stroke-miterlimit:4;stroke-dasharray:none"
           d="m 622.60809,464.66825 c 0.76486,14.11151 1.47366,28.20974 2.37061,42.32999 0.76729,12.61767 1.35174,25.22959 2.1444,37.84574 -0.0933,1.53244 0.41288,3.07906 0.60914,4.62747 -0.18934,1.55474 -0.66295,3.10977 -0.0596,4.71699 -0.0294,1.72779 -0.14005,3.44384 -0.14935,5.15384 -0.0414,3.58734 -0.43371,7.12912 -0.47513,10.71646 -0.0942,2.79384 -0.16297,5.58617 0.007,8.3975 0.0587,7.13305 -0.17217,14.25015 0.0494,21.40674 0.42142,2.31508 0.86271,4.6124 1.36012,6.92298 1.54576,3.14451 3.02613,6.32611 5.52362,9.2979 2.47185,3.28866 5.79804,6.344 9.74372,9.08038 2.06096,1.32147 4.05649,2.68002 6.28838,3.89174 3.69382,2.20366 7.80961,4.1167 12.28343,5.54378 3.53305,1.31699 7.1662,2.54504 11.0214,3.34478 2.71543,0.63531 5.4415,1.3032 8.252,1.51795 5.11636,0.62544 10.27558,1.06579 15.36706,1.06204 3.28719,-0.14551 6.56248,-0.40648 9.70187,-0.92491 2.65473,-0.34028 4.99755,-1.15995 7.40837,-1.85086 2.2987,-0.71745 4.69351,-1.45721 6.39602,-2.65373 2.53953,-1.56159 4.84835,-3.27543 6.67152,-5.20936 1.2676,-1.41966 2.3057,-2.90864 3.22105,-4.45672 1.35067,-1.95568 1.96759,-4.10008 2.15208,-6.30181 0.32596,-2.24332 0.12348,-4.52163 -0.23647,-6.80717 -0.19373,-2.01333 -1.45175,-3.96335 -2.59807,-5.88683 -1.28118,-1.78271 -2.77998,-3.51931 -4.5965,-5.12085 -2.10184,-1.99948 -4.70295,-3.78677 -7.5551,-5.39316 -2.45455,-1.49724 -5.23088,-2.79282 -7.9164,-4.12696 -5.20574,-2.47896 -10.77204,-4.63778 -16.13269,-6.95816 -2.90184,-1.20512 -5.79836,-2.39397 -8.58534,-3.72209 -2.8869,-1.55455 -5.37722,-3.39818 -8.05312,-5.09804 -2.90393,-2.00163 -5.80249,-3.98699 -8.59029,-6.02874 -3.25312,-2.59495 -6.18852,-5.32497 -9.22004,-8.03271 -2.45659,-2.29374 -4.35252,-4.77019 -6.50612,-7.16493 -3.40281,-4.07977 -6.68418,-8.18336 -9.61181,-12.39095 -2.43713,-3.34051 -4.85423,-6.6988 -7.26603,-10.04081 -0.94622,-1.786 -2.12066,-3.55847 -2.38755,-5.40145 -2.30651,-12.0283 -3.99376,-24.06021 -5.93995,-36.09334 -1.29249,-8.13856 -2.59025,-16.29339 -3.85737,-24.43346 -0.25845,-0.63192 -0.5222,-1.2801 -0.78599,-1.92831 z"
           sodipodi:nodetypes="ccccccccccc"
           inkscape:tile-y0="264.59375" />
        <path
           id="use268"
           inkscape:tile-x0="209.625"
           style="fill:url(#linearGradient1918);fill-rule:evenodd;stroke:#000000;stroke-width:8.68607;stroke-miterlimit:4;stroke-dasharray:none"
           d="m 567.56028,537.7022 c 0.57078,14.1011 1.08563,28.18864 1.78853,42.29922 0.59385,12.6088 1.00475,25.21088 1.62399,37.81833 -0.11453,1.53033 0.3708,3.07814 0.54586,4.62603 -0.21098,1.5521 -0.70651,3.10291 -0.12476,4.71179 -0.0532,1.72583 -0.18771,3.43949 -0.22062,5.14767 -0.0909,3.5834 -0.53257,7.11937 -0.62353,10.70276 -0.1328,2.79044 -0.24024,5.5795 -0.10882,8.38884 -0.0397,7.12601 -0.36903,14.23446 -0.24611,21.38485 0.38988,2.31502 0.79988,4.61239 1.26585,6.9233 1.50383,3.14975 2.94171,6.33618 5.40057,9.31863 2.42884,3.29884 5.71603,6.36929 9.62774,9.12453 2.04467,1.33142 4.02338,2.69955 6.24067,3.92228 3.66695,2.22169 7.76029,4.15537 12.21869,5.60553 3.51826,1.33507 7.13794,2.58183 10.98569,3.40208 2.70926,0.64959 5.42874,1.33175 8.23895,1.56173 5.11265,0.65291 10.27075,1.12117 15.36716,1.1454 3.29234,-0.12729 6.5744,-0.36999 9.72393,-0.87063 2.662,-0.32534 5.01838,-1.13127 7.44104,-1.80823 2.31082,-0.70407 4.71813,-1.4299 6.43879,-2.61583 2.56355,-1.546 4.89823,-3.24539 6.74984,-5.1673 1.28842,-1.41121 2.34806,-2.89295 3.28567,-4.4344 1.37896,-1.94622 2.02607,-4.08503 2.24113,-6.28345 0.35725,-2.23921 0.18601,-4.51628 -0.14271,-6.80143 -0.16614,-2.0123 -1.39845,-3.96722 -2.5193,-5.895 -1.25782,-1.78793 -2.73407,-3.53095 -4.53023,-5.14082 -2.07625,-2.00897 -4.6552,-3.8087 -7.48791,-5.42911 -2.43622,-1.50918 -5.19733,-2.81867 -7.86701,-4.16619 -5.17652,-2.50502 -10.71837,-4.69218 -16.05213,-7.03963 -2.88798,-1.21983 -5.77087,-2.42336 -8.5422,-3.76541 -2.8682,-1.56881 -5.33546,-3.42423 -7.99047,-5.13702 -2.87907,-2.01554 -5.75301,-4.01477 -8.51529,-6.06972 -3.22044,-2.61015 -6.12095,-5.35348 -9.118,-8.07506 -2.42729,-2.30488 -4.29083,-4.78918 -6.41345,-7.19329 -3.34976,-4.09424 -6.57763,-8.21162 -9.44999,-12.43094 -2.39336,-3.35045 -4.76642,-6.71856 -7.13438,-10.07035 -0.92249,-1.78937 -2.07359,-3.56644 -2.3153,-5.40898 -2.14266,-12.02854 -3.66546,-24.05727 -5.4474,-36.08863 -1.18136,-8.13724 -2.36779,-16.29076 -3.52376,-24.42936 -0.24997,-0.63268 -0.50503,-1.28166 -0.76012,-1.93064 z"
           sodipodi:nodetypes="ccccccccccc"
           inkscape:tile-y0="264.59375" />
        <path
           id="use270"
           inkscape:tile-x0="209.625"
           style="fill:url(#linearGradient1922);fill-rule:evenodd;stroke:#000000;stroke-width:8.68607;stroke-miterlimit:4;stroke-dasharray:none"
           d="m 1128.7036,83.809299 c -0.7534,14.002078 -1.4507,27.998981 -2.3362,41.990751 -0.757,12.5078 -1.3312,25.0362 -2.1136,37.53884 0.095,1.54597 -0.4104,3.01972 -0.6055,4.53993 0.1907,1.58213 0.6656,3.20553 0.063,4.72586 0.031,1.73212 0.1428,3.46423 0.1535,5.17568 0.044,3.59351 0.4396,7.19209 0.4839,10.78561 0.096,2.80758 0.1676,5.61 -2e-4,8.39697 -0.053,7.12503 0.1838,14.27583 -0.032,21.40091 -0.4196,2.25448 -0.859,4.48831 -1.3546,6.72731 -1.5433,2.92183 -3.0211,5.89018 -5.5163,8.50207 -2.4694,2.93246 -5.7932,5.50842 -9.7369,7.67608 -2.06,1.02441 -4.0546,2.09534 -6.2856,2.98533 -3.6923,1.67124 -7.8067,2.99098 -12.2797,3.7731 -3.5322,0.80769 -7.1645,1.512 -11.0192,1.7562 -2.715,0.24386 -5.4407,0.51873 -8.2512,0.32829 -5.1162,-0.1122 -10.2753,-0.41567 -15.3671,-1.15349 -3.2875,-0.61947 -6.5632,-1.35267 -9.7032,-2.32378 -2.6552,-0.72302 -4.9988,-1.88055 -7.4103,-2.91909 -2.2995,-1.04893 -4.695,-2.134 -6.3986,-3.57607 -2.541,-1.92782 -4.8514,-3.97464 -6.6762,-6.17157 -1.2688,-1.60249 -2.3082,-3.24123 -3.2249,-4.92138 -1.3524,-2.15052 -1.971,-4.38401 -2.1573,-6.61247 -0.3278,-2.29044 -0.1272,-4.53971 0.2309,-6.7735 0.1921,-1.9855 1.4486,-3.75426 2.5934,-5.51258 1.2798,-1.59811 2.7773,-3.11871 4.5926,-4.45844 2.1004,-1.69658 4.7002,-3.10894 7.5512,-4.3042 2.4535,-1.14344 5.2289,-2.0388 7.9135,-2.98585 5.204,-1.72856 10.7689,-3.08495 16.128,-4.63259 2.901,-0.78682 5.7967,-1.55811 8.5828,-2.48449 2.8858,-1.1384 5.3748,-2.62311 8.0495,-3.93726 2.9024,-1.58308 5.7995,-3.15064 8.5858,-4.79056 3.2512,-2.12608 6.1846,-4.43305 9.2141,-6.70386 2.4549,-1.93971 4.3489,-4.14294 6.5006,-6.22733 3.3997,-3.5894 6.6779,-7.22014 9.6023,-11.00587 2.4346,-2.98933 4.8491,-5.99934 7.2583,-8.99382 0.9448,-1.6497 2.1178,-3.25295 2.3833,-5.05753 2.2968,-11.69649 3.9744,-23.48586 5.9109,-35.2391 1.2859,-7.9527 2.5771,-15.920926 3.8376,-23.878776 0.2579,-0.594712 0.5212,-1.204925 0.7845,-1.815111 z"
           sodipodi:nodetypes="ccccccccccc"
           inkscape:tile-y0="264.59375" />
        <path
           id="use272"
           inkscape:tile-x0="209.625"
           style="fill:url(#linearGradient1926);fill-rule:evenodd;stroke:#000000;stroke-width:8.68607;stroke-miterlimit:4;stroke-dasharray:none"
           d="m 1107.2447,169.09479 c -6.7166,12.93421 -13.3752,25.87309 -20.2188,38.77528 -6.0834,11.53963 -11.9938,23.1295 -18.1002,34.66003 -0.5649,1.45821 -1.6951,2.74735 -2.5369,4.13239 -0.4847,1.50827 -0.7043,3.10325 -1.951,4.41936 -0.7076,1.62107 -1.3343,3.2559 -2.0531,4.85426 -1.4874,3.35978 -2.628,6.78383 -4.1154,10.14362 -1.1006,2.63546 -2.2242,5.2618 -3.5788,7.8332 -3.0892,6.63771 -5.9013,13.34861 -9.1524,19.95874 -1.378,2.03195 -2.7671,4.04124 -4.2141,6.04584 -2.7799,2.46381 -5.5146,4.98211 -9.1091,6.99527 -3.7054,2.3166 -8.1086,4.15563 -12.9542,5.50861 -2.4852,0.6061 -4.925,1.26669 -7.523,1.71839 -4.3839,0.93254 -9.038,1.46556 -13.81942,1.43622 -3.85679,0.15413 -7.76914,0.19482 -11.70644,-0.2314 -2.80391,-0.23322 -5.63162,-0.43929 -8.34532,-1.09382 -5.03993,-0.97275 -10.04111,-2.13126 -14.79017,-3.68351 -3.00524,-1.13568 -5.95028,-2.37548 -8.65897,-3.81418 -2.33227,-1.12503 -4.16959,-2.60247 -6.12509,-3.98048 -1.83963,-1.36866 -3.75944,-2.78737 -4.839,-4.42168 -1.70525,-2.22954 -3.13046,-4.53097 -4.00888,-6.89003 -0.57885,-1.7102 -0.91405,-3.41529 -1.10957,-5.13818 -0.42838,-2.23561 -0.0917,-4.42412 0.67274,-6.53459 0.65013,-2.19231 1.80825,-4.25651 3.11636,-6.27957 1.03728,-1.81958 3.04055,-3.25643 4.92837,-4.70246 1.95379,-1.27365 4.09097,-2.43809 6.46718,-3.37985 2.81172,-1.2263 5.99904,-2.1027 9.34359,-2.73399 2.92716,-0.65037 6.06876,-1.01469 9.14206,-1.44263 5.91179,-0.72951 12.02382,-1.0506 18.01272,-1.58503 3.22023,-0.24176 6.42858,-0.46993 9.59397,-0.86138 3.35497,-0.57233 6.46287,-1.53503 9.68277,-2.30712 3.561,-0.98432 7.1101,-1.95506 10.5798,-3.01212 4.1392,-1.43169 8.0395,-3.08607 12.0199,-4.69038 3.2679,-1.39294 6.0904,-3.1269 9.1185,-4.70623 4.9106,-2.77159 9.7179,-5.60233 14.2395,-8.63771 3.695,-2.37554 7.3789,-4.77379 11.0509,-7.15844 1.6426,-1.37862 3.4925,-2.67519 4.5255,-4.31361 7.2689,-10.52152 13.9615,-21.23477 20.8962,-31.87038 4.6681,-7.2006 9.348,-14.41478 13.993,-21.6245 0.51,-0.511 1.0318,-1.03557 1.5536,-1.56014 z"
           sodipodi:nodetypes="ccccccccccc"
           inkscape:tile-y0="264.59375" />
        <path
           id="use274"
           inkscape:tile-x0="209.625"
           style="fill:url(#linearGradient1930);fill-rule:evenodd;stroke:#000000;stroke-width:8.68607;stroke-miterlimit:4;stroke-dasharray:none"
           d="m 1050.374,241.94729 c -6.6016,12.96489 -13.1453,25.93428 -19.8741,38.86756 -5.9808,11.56732 -11.7882,23.18433 -17.792,34.74259 -0.552,1.46103 -1.6704,2.75481 -2.4999,4.14353 -0.4715,1.51084 -0.6773,3.10754 -1.9119,4.42868 -0.6933,1.62445 -1.3057,3.26241 -2.0102,4.86418 -1.4578,3.36686 -2.5683,6.79687 -4.026,10.16377 -1.0774,2.64079 -2.1778,5.27254 -3.50954,7.85011 -3.03039,6.65224 -5.78329,13.37676 -8.9757,20.00197 -1.3597,2.03787 -2.73072,4.05308 -4.15966,6.06382 -2.75707,2.47477 -5.46849,5.00393 -9.04346,7.03054 -3.68318,2.33063 -8.0679,4.18578 -12.89884,5.55608 -2.47837,0.61494 -4.91105,1.28424 -7.50347,1.74507 -4.37322,0.94805 -9.01977,1.49724 -13.7984,1.48419 -3.85303,0.16737 -7.76254,0.22141 -11.70098,-0.19166 -2.80412,-0.22378 -5.6318,-0.42034 -8.3494,-1.06602 -5.04504,-0.95617 -10.05298,-2.09831 -14.81232,-3.63532 -3.01305,-1.12613 -5.96683,-2.35664 -8.68612,-3.78697 -2.34044,-1.11776 -4.18923,-2.58983 -6.15529,-3.962 -1.85018,-1.36322 -3.78091,-2.77623 -4.87375,-4.40785 -1.72326,-2.22508 -3.16727,-4.52303 -4.06534,-6.88052 -0.59311,-1.70926 -0.94268,-3.41423 -1.15285,-5.1375 -0.44725,-2.23549 -0.12953,-4.42648 0.61638,-6.54081 0.63096,-2.19584 1.77066,-4.26524 3.06061,-6.29398 1.02092,-1.82426 3.01075,-3.26875 4.88501,-4.72209 1.94163,-1.28108 4.0675,-2.4535 6.43413,-3.40393 2.79944,-1.23661 5.97722,-2.12442 9.31427,-2.76747 2.91972,-0.66075 6.05622,-1.036 9.12391,-1.47467 5.90179,-0.75009 12.0072,-1.09222 17.98771,-1.64738 3.21613,-0.25287 6.42048,-0.49212 9.58052,-0.89459 3.34793,-0.58411 6.44561,-1.55799 9.65681,-2.34151 3.55034,-0.99705 7.08888,-1.98048 10.54736,-3.05 4.12435,-1.44667 8.00793,-3.11532 11.97213,-4.73417 3.25389,-1.40492 6.05973,-3.14953 9.07243,-4.74016 4.88371,-2.78998 9.66378,-5.63882 14.15646,-8.69143 3.67239,-2.38957 7.33339,-4.80183 10.98269,-7.20043 1.6298,-1.38505 3.4673,-2.68869 4.4856,-4.33162 7.1742,-10.55264 13.7709,-21.29514 20.6102,-31.9608 4.6035,-7.22086 9.2186,-14.45533 13.799,-21.68523 0.5052,-0.51305 1.0223,-1.03971 1.5393,-1.56637 z"
           sodipodi:nodetypes="ccccccccccc"
           inkscape:tile-y0="264.59375" />
        <path
           id="use276"
           inkscape:tile-x0="209.625"
           style="fill:url(#linearGradient1934);fill-rule:evenodd;stroke:#000000;stroke-width:8.68607;stroke-miterlimit:4;stroke-dasharray:none"
           d="m 987.58577,312.28537 c -5.44667,13.25026 -10.83546,26.50307 -16.41102,39.72589 -4.94963,11.825 -9.72298,23.69405 -14.69629,35.51075 -0.4233,1.48668 -1.42304,2.82449 -2.12782,4.24798 -0.33915,1.53397 -0.40732,3.14523 -1.51998,4.51451 -0.54957,1.65566 -1.01769,3.32215 -1.58044,4.95541 -1.15974,3.43227 -1.96953,6.91621 -3.12925,10.34849 -0.84414,2.68985 -1.71196,5.3714 -2.81392,8.00635 -2.44047,6.78656 -4.59945,13.63632 -7.20304,20.4012 -1.17578,2.09364 -2.36464,4.16493 -3.61127,6.23369 -2.52528,2.58005 -5.00059,5.21316 -8.37576,7.37068 -3.45665,2.46662 -7.65002,4.47933 -12.32756,6.02004 -2.40717,0.70193 -4.76438,1.45695 -7.29786,2.00793 -4.25928,1.10092 -8.82381,1.81037 -13.56731,1.95938 -3.80957,0.2989 -7.68486,0.48586 -11.62863,0.20446 -2.80195,-0.1297 -5.62495,-0.23124 -8.37696,-0.78777 -5.08831,-0.78951 -10.15562,-1.76715 -15.00985,-3.14995 -3.08618,-1.02924 -6.12244,-2.16534 -8.94301,-3.51016 -2.41796,-1.04365 -4.37819,-2.45996 -6.44629,-3.77192 -1.95234,-1.30688 -3.98884,-2.66108 -5.21246,-4.26334 -1.89984,-2.17714 -3.52872,-4.43697 -4.62089,-6.77516 -0.7343,-1.69723 -1.22652,-3.39841 -1.58195,-5.12269 -0.63438,-2.23091 -0.50581,-4.44305 0.0543,-6.5927 0.43903,-2.22765 1.39375,-4.34552 2.50103,-6.42762 0.85778,-1.86752 2.70936,-3.38639 4.44554,-4.91018 1.81773,-1.35304 3.82758,-2.60314 6.09529,-3.63838 2.67282,-1.33744 5.75085,-2.33727 9.00779,-3.0966 2.84129,-0.76294 5.92203,-1.2464 8.92906,-1.79122 5.79314,-0.95391 11.82311,-1.50481 17.71099,-2.2655 3.17018,-0.3632 6.32987,-0.7123 9.43165,-1.22391 3.27276,-0.70046 6.26396,-1.78406 9.38407,-2.68025 3.43845,-1.12224 6.86634,-2.23039 10.20746,-3.42231 3.9698,-1.59346 7.68174,-3.40178 11.47793,-5.1628 3.10949,-1.52197 5.74537,-3.37007 8.59969,-5.07043 4.60891,-2.9689 9.10996,-5.9934 13.30844,-9.2129 3.44084,-2.52551 6.86856,-5.07339 10.28574,-7.60717 1.49942,-1.44691 3.21193,-2.81907 4.08253,-4.50433 6.22049,-10.84601 11.85164,-21.8632 17.73014,-32.8114 3.95317,-7.41123 7.91682,-14.83656 11.84633,-22.25609 0.45766,-0.53263 0.92592,-1.07932 1.39414,-1.62603 z"
           sodipodi:nodetypes="ccccccccccc"
           inkscape:tile-y0="264.59375" />
        <path
           id="use278"
           inkscape:tile-x0="209.625"
           style="fill:url(#linearGradient1938);fill-rule:evenodd;stroke:#000000;stroke-width:8.68607;stroke-miterlimit:4;stroke-dasharray:none"
           d="m 952.56616,395.71147 c -9.26108,12.14148 -18.46475,24.29197 -27.84747,36.39233 -8.35415,10.82537 -16.54382,21.71323 -24.91937,32.5279 -0.8505,1.38363 -2.2373,2.55831 -3.35241,3.84904 -0.77946,1.43879 -1.3088,2.98288 -2.8181,4.17497 -1.0256,1.53204 -1.97241,3.0838 -3.00494,4.59273 -2.14668,3.17366 -3.95663,6.43691 -6.1033,9.61059 -1.61729,2.49457 -3.25603,4.97841 -5.11662,7.39072 -4.3926,6.25842 -8.5205,12.60977 -13.07074,18.82875 -1.77991,1.88254 -3.56648,3.7421 -5.41054,5.59258 -3.27454,2.19733 -6.51408,4.45148 -10.52144,6.14508 -4.17762,1.98204 -8.96543,3.44299 -14.10455,4.3942 -2.61869,0.40192 -5.20238,0.86066 -7.90478,1.1028 -4.5932,0.57526 -9.38103,0.73874 -14.18833,0.34205 -3.91207,-0.14595 -7.85812,-0.40721 -11.73902,-1.12736 -2.77735,-0.44403 -5.5839,-0.86332 -8.189,-1.71273 -4.88522,-1.33983 -9.69544,-2.8586 -14.17583,-4.74317 -2.80558,-1.34275 -5.53041,-2.78276 -7.97889,-4.39921 -2.13023,-1.28054 -3.69408,-2.86787 -5.39613,-4.36698 -1.58723,-1.48104 -3.24548,-3.01725 -4.01625,-4.69977 -1.28557,-2.31323 -2.27532,-4.67526 -2.70354,-7.05161 -0.25211,-1.71829 -0.25994,-3.41279 -0.12373,-5.11399 9.3e-4,-2.2209 0.76283,-4.33684 1.94029,-6.34346 1.07819,-2.09551 2.64298,-4.02658 4.35076,-5.90582 1.39579,-1.70099 3.69009,-2.95299 5.8699,-4.22289 2.21287,-1.09614 4.58926,-2.07126 7.16319,-2.81007 3.06732,-0.98377 6.44509,-1.5962 9.93376,-1.95661 3.07219,-0.41126 6.30496,-0.52602 9.48128,-0.70832 6.09185,-0.25899 12.30631,-0.10288 18.43805,-0.165 3.28823,0.0112 6.56188,0.0348 9.82384,-0.10469 3.48773,-0.30193 6.80223,-1.00492 10.19261,-1.51275 3.77481,-0.68927 7.53497,-1.3662 11.23193,-2.13368 4.44333,-1.08262 8.68908,-2.40155 13.00592,-3.66532 3.55873,-1.11174 6.73501,-2.59152 10.08843,-3.90413 5.4787,-2.33456 10.86497,-4.73498 16.0031,-7.35764 4.1786,-2.04055 8.3504,-4.10412 12.50761,-6.15533 1.91997,-1.22281 4.03263,-2.34937 5.38917,-3.87335 9.35065,-9.73773 18.15828,-19.70744 27.19464,-29.58256 6.09072,-6.68779 12.19601,-13.38796 18.26533,-20.08645 0.61211,-0.46085 1.23879,-0.93408 1.86549,-1.4073 z"
           sodipodi:nodetypes="ccccccccccc"
           inkscape:tile-y0="264.59375" />
        <path
           id="use280"
           inkscape:tile-x0="209.625"
           style="fill:url(#linearGradient1942);fill-rule:evenodd;stroke:#000000;stroke-width:8.68607;stroke-miterlimit:4;stroke-dasharray:none"
           d="m 913.83476,480.51043 c -12.60506,10.72457 -25.15484,21.4641 -37.87096,32.13582 -11.33611,9.55158 -22.52389,19.18129 -33.87861,28.72025 -1.23049,1.24434 -2.94335,2.22883 -4.41459,3.35482 -1.17411,1.30528 -2.12549,2.73928 -3.96612,3.72738 -1.44683,1.36871 -2.81991,2.76495 -4.26734,4.11064 -3.01939,2.83293 -5.72468,5.78881 -8.74404,8.62175 -2.30294,2.23431 -4.62444,4.45597 -7.14953,6.58455 -6.11435,5.56927 -11.98794,11.25693 -18.25,16.77107 -2.30013,1.62567 -4.6007,3.2284 -6.95657,4.81617 -3.88775,1.76806 -7.75576,3.59478 -12.2432,4.7971 -4.7369,1.4625 -9.9455,2.35575 -15.36878,2.71874 -2.74099,0.105 -5.46224,0.26868 -8.24396,0.21033 -4.7725,0.0589 -9.62877,-0.30089 -14.35249,-1.20381 -3.89204,-0.56398 -7.78697,-1.24298 -11.49176,-2.35812 -2.67071,-0.72914 -5.37747,-1.43754 -7.76497,-2.53957 -4.54581,-1.82224 -8.9678,-3.80907 -12.95882,-6.11365 -2.45499,-1.60016 -4.80242,-3.28552 -6.82418,-5.11141 -1.79314,-1.46705 -2.93375,-3.16915 -4.23723,-4.801 -1.19296,-1.60198 -2.44231,-3.26491 -2.76001,-4.97321 -0.66378,-2.37308 -1.01701,-4.76128 -0.80201,-7.10262 0.21331,-1.68673 0.66566,-3.3241 1.26456,-4.95236 0.6041,-2.14479 1.94449,-4.10594 3.67288,-5.91656 1.65271,-1.90721 3.74979,-3.603 5.97653,-5.23327 1.86476,-1.49186 4.51061,-2.45293 7.04625,-3.44368 2.52166,-0.81935 5.17482,-1.50415 7.96233,-1.93937 3.3499,-0.61842 6.91095,-0.84466 10.51503,-0.81551 3.19931,-0.065 6.47948,0.17372 9.72126,0.34111 6.19276,0.40856 12.39604,1.23129 18.57543,1.83432 3.3017,0.36638 6.58536,0.74315 9.9016,0.96112 3.58722,0.0855 7.1093,-0.23501 10.65462,-0.35886 3.98096,-0.25753 7.94384,-0.50471 11.86781,-0.84618 4.75965,-0.56512 9.38494,-1.37983 14.06667,-2.13359 3.87852,-0.68889 7.47263,-1.77457 11.19939,-2.67966 6.14025,-1.66227 12.20547,-3.39813 18.08168,-5.37548 4.75377,-1.51887 9.50695,-3.06075 14.24211,-4.59225 2.26171,-0.97336 4.69094,-1.83292 6.46816,-3.15807 12.04224,-8.39341 23.60175,-17.06959 35.36541,-25.62969 7.93762,-5.80033 15.89324,-11.61106 23.81224,-17.42405 0.74034,-0.3789 1.49869,-0.76817 2.25707,-1.15742 z"
           sodipodi:nodetypes="ccccccccccc"
           inkscape:tile-y0="264.59375" />
        <path
           id="use282"
           inkscape:tile-x0="209.625"
           style="fill:url(#linearGradient1946);fill-rule:evenodd;stroke:#000000;stroke-width:8.68607;stroke-miterlimit:4;stroke-dasharray:none"
           d="m 864.06436,559.01109 c -13.90541,10.03317 -27.75694,20.08364 -41.76801,30.05946 -12.49486,8.93079 -24.84952,17.94564 -37.36165,26.86308 -1.38006,1.17471 -3.21544,2.07038 -4.82406,3.11704 -1.33032,1.23755 -2.45138,2.61258 -4.4157,3.50599 -1.61187,1.28785 -3.1527,2.60632 -4.76255,3.87136 -3.36111,2.66445 -6.42043,5.46483 -9.78152,8.12929 -2.57201,2.105 -5.16125,4.19664 -7.94457,6.18694 -6.78716,5.2299 -13.34575,10.58788 -20.27516,15.75651 -2.49945,1.5031 -4.99673,2.9835 -7.54792,4.44656 -4.11242,1.57154 -8.21172,3.202 -12.86243,4.1866 -4.9314,1.23055 -10.27199,1.87653 -15.76772,1.9882 -2.76862,-0.0211 -5.52412,0.0166 -8.31499,-0.16796 -4.80641,-0.15939 -9.6491,-0.7368 -14.29625,-1.84536 -3.84961,-0.73537 -7.68891,-1.58464 -11.28704,-2.85664 -2.60235,-0.84308 -5.24335,-1.66727 -7.51824,-2.86616 -4.36292,-2.00979 -8.58246,-4.17673 -12.33219,-6.63832 -2.28565,-1.69474 -4.45336,-3.46886 -6.27746,-5.36713 -1.63528,-1.5329 -2.58739,-3.26855 -3.71134,-4.94213 -1.01621,-1.639 -2.0822,-3.34084 -2.20598,-5.04507 -0.3957,-2.37758 -0.47735,-4.75597 0.007,-7.06206 0.40775,-1.65869 1.05025,-3.25764 1.8391,-4.84088 0.85322,-2.09396 2.42597,-3.97265 4.37153,-5.6848 1.88063,-1.81112 4.18391,-3.39284 6.61008,-4.90383 2.04628,-1.3906 4.81729,-2.22055 7.48087,-3.08489 2.62988,-0.69544 5.37661,-1.25179 8.22983,-1.55514 3.43982,-0.45892 7.04705,-0.52028 10.6683,-0.32708 3.22496,0.0817 6.49647,0.46738 9.7375,0.78081 6.18122,0.68659 12.32554,1.78333 18.47103,2.66163 3.27853,0.51301 6.53771,1.03545 9.84785,1.40232 3.59786,0.2482 7.1767,0.0918 10.75638,0.13099 4.03312,-0.0732 8.04689,-0.13689 12.03231,-0.29568 4.85148,-0.34189 9.59642,-0.9368 14.39115,-1.46882 3.97953,-0.50452 7.71847,-1.41447 11.57012,-2.13977 6.36563,-1.36416 12.66424,-2.80452 18.80042,-4.49236 4.95482,-1.28556 9.91171,-2.59389 14.84928,-3.89278 2.38609,-0.85962 4.92761,-1.59906 6.86677,-2.82875 13.07232,-7.753 25.69157,-15.80771 38.50285,-23.73827 8.64729,-5.3753 17.31385,-10.76006 25.94388,-16.14872 0.78796,-0.34102 1.59522,-0.69147 2.4025,-1.04192 z"
           sodipodi:nodetypes="ccccccccccc"
           inkscape:tile-y0="264.59375" />
        <path
           id="use284"
           inkscape:tile-x0="209.625"
           style="fill:url(#linearGradient1950);fill-rule:evenodd;stroke:#000000;stroke-width:8.68607;stroke-miterlimit:4;stroke-dasharray:none"
           d="m 810.03847,634.19741 c -14.36443,9.7667 -28.67556,19.55153 -43.14352,29.25931 -12.90375,8.69164 -25.67045,17.46939 -38.59096,26.14744 -1.43312,1.14765 -3.31109,2.00959 -4.96802,3.02581 -1.38589,1.21112 -2.56775,2.56277 -4.5749,3.42029 -1.67033,1.25655 -3.27071,2.54478 -4.93804,3.77863 -3.48212,2.59923 -6.66735,5.33899 -10.14943,7.93823 -2.66739,2.05487 -5.35149,4.09615 -8.22591,6.03316 -7.0252,5.09872 -13.82657,10.32891 -20.99182,15.36418 -2.56933,1.45622 -5.13555,2.88984 -7.75507,4.30528 -4.18952,1.49746 -8.36837,3.05384 -13.073,3.95732 -4.9964,1.1439 -10.37851,1.69837 -15.89374,1.71774 -2.77519,-0.0674 -5.53971,-0.0758 -8.33034,-0.3065 -4.81268,-0.23924 -9.64416,-0.8957 -14.25726,-2.07825 -3.82908,-0.79728 -7.64304,-1.70791 -11.19743,-3.0358 -2.57396,-0.88375 -5.18747,-1.74928 -7.41808,-2.98225 -4.29024,-2.07599 -8.43011,-4.30619 -12.08653,-6.8222 -2.22061,-1.72725 -4.31963,-3.53164 -6.06887,-5.45402 -1.57529,-1.55508 -2.45705,-3.30079 -3.51371,-4.98752 -0.95011,-1.65046 -1.94743,-3.36439 -1.99997,-5.06494 -0.29685,-2.37617 -0.2788,-4.74789 0.30385,-7.0381 0.47853,-1.64627 1.18994,-3.22909 2.04742,-4.79379 0.94353,-2.07261 2.5994,-3.91866 4.62218,-5.59247 1.96179,-1.77355 4.33773,-3.3114 6.83393,-4.77671 2.11022,-1.35168 4.92357,-2.13248 7.63062,-2.94934 2.66622,-0.6491 5.4437,-1.15763 8.31737,-1.41222 3.46836,-0.39983 7.0879,-0.40065 10.71077,-0.14752 3.23024,0.13532 6.49436,0.57445 9.73095,0.94106 6.16903,0.78765 12.28383,1.98347 18.40899,2.96161 3.2658,0.56611 6.51182,1.1413 9.81547,1.5623 3.59713,0.30756 7.19219,0.21153 10.77987,0.31048 4.04706,-0.005 8.07433,-0.002 12.07715,-0.0934 4.87893,-0.25959 9.66165,-0.77311 14.49165,-1.22314 4.01145,-0.43624 7.79871,-1.28059 11.6912,-1.939 6.4401,-1.25307 12.8162,-2.58321 19.03983,-4.16271 5.02219,-1.19834 10.04741,-2.41934 15.05285,-3.63126 2.42864,-0.81681 5.00807,-1.51123 7.00411,-2.70433 13.43331,-7.50816 26.42498,-15.3246 39.60397,-23.01408 8.89645,-5.21251 17.8126,-10.43412 26.6923,-15.66024 0.8044,-0.32668 1.62856,-0.66245 2.45275,-0.9982 z"
           sodipodi:nodetypes="ccccccccccc"
           inkscape:tile-y0="264.59375" />
      </g>
    </g>
  </g>
  <metadata
     id="metadata105">
    <rdf:RDF>
      <cc:Work>
        <dc:format>image/svg+xml</dc:format>
        <dc:type
           rdf:resource="http://purl.org/dc/dcmitype/StillImage" />
        <cc:license
           rdf:resource="http://creativecommons.org/publicdomain/zero/1.0/" />
        <dc:publisher>
          <cc:Agent
             rdf:about="http://openclipart.org/">
            <dc:title>Openclipart</dc:title>
          </cc:Agent>
        </dc:publisher>
        <dc:title />
        <dc:date>2008-07-24T13:53:29</dc:date>
        <dc:description>A few wheat sheaths that I drew to decorate a flier for a harvest celebration</dc:description>
        <dc:source>https://openclipart.org/detail/18082/wheat-by-davosmith</dc:source>
        <dc:creator>
          <cc:Agent>
            <dc:title>davosmith</dc:title>
          </cc:Agent>
        </dc:creator>
        <dc:subject>
          <rdf:Bag>
            <rdf:li>cereal</rdf:li>
            <rdf:li>crop</rdf:li>
            <rdf:li>food</rdf:li>
            <rdf:li>grain</rdf:li>
            <rdf:li>harvest</rdf:li>
            <rdf:li>plant</rdf:li>
            <rdf:li>wheat</rdf:li>
          </rdf:Bag>
        </dc:subject>
      </cc:Work>
      <cc:License
         rdf:about="http://creativecommons.org/publicdomain/zero/1.0/">
        <cc:permits
           rdf:resource="http://creativecommons.org/ns#Reproduction" />
        <cc:permits
           rdf:resource="http://creativecommons.org/ns#Distribution" />
        <cc:permits
           rdf:resource="http://creativecommons.org/ns#DerivativeWorks" />
      </cc:License>
    </rdf:RDF>
  </metadata>
</svg>
