<?xml version="1.0" encoding="UTF-8" standalone="no"?>
<svg
   xmlns:dc="http://purl.org/dc/elements/1.1/"
   xmlns:cc="http://creativecommons.org/ns#"
   xmlns:rdf="http://www.w3.org/1999/02/22-rdf-syntax-ns#"
   xmlns:svg="http://www.w3.org/2000/svg"
   xmlns="http://www.w3.org/2000/svg"
   xmlns:xlink="http://www.w3.org/1999/xlink"
   xmlns:sodipodi="http://sodipodi.sourceforge.net/DTD/sodipodi-0.dtd"
   xmlns:inkscape="http://www.inkscape.org/namespaces/inkscape"
   id="svg2"
   sodipodi:docname="4Wheat-mini.svg"
   inkscape:export-filename="/home/davo/Church/Images/wheat.png"
   viewBox="0 0 999.99947 1001.0705"
   sodipodi:version="0.32"
   inkscape:export-xdpi="90"
   version="1.0"
   inkscape:output_extension="org.inkscape.output.svg.inkscape"
   inkscape:export-ydpi="90"
   inkscape:version="1.0.1 (3bc2e813f5, 2020-09-07)"
   width="999.99945"
   height="1001.0704">
  <defs
     id="defs4">
    <linearGradient
       inkscape:collect="always"
       id="linearGradient1068">
      <stop
         style="stop-color:#93ac9d;stop-opacity:1"
         offset="0"
         id="stop1064" />
      <stop
         style="stop-color:#ffffff;stop-opacity:1"
         offset="1"
         id="stop1066" />
    </linearGradient>
    <linearGradient
       id="linearGradient2466"
       y2="304.85001"
       gradientUnits="userSpaceOnUse"
       x2="222.23"
       y1="367.48001"
       x1="239.41"
       inkscape:collect="always">
      <stop
         id="stop2389"
         style="stop-color:#e2c86a"
         offset="0" />
      <stop
         id="stop2391"
         style="stop-color:#fffe4f"
         offset="1" />
    </linearGradient>
    <linearGradient
       inkscape:collect="always"
       xlink:href="#linearGradient2466"
       id="linearGradient210"
       gradientUnits="userSpaceOnUse"
       x1="239.41"
       y1="367.48001"
       x2="222.23"
       y2="304.85001"
       gradientTransform="matrix(0.94370916,0.03927189,-0.05223817,0.97947941,264.24744,-11.441969)" />
    <linearGradient
       inkscape:collect="always"
       xlink:href="#linearGradient2466"
       id="linearGradient250"
       gradientUnits="userSpaceOnUse"
       x1="239.41"
       y1="367.48001"
       x2="222.23"
       y2="304.85001"
       gradientTransform="matrix(0.90842194,-0.25866672,0.25757245,0.94645421,-106.43656,-17.373918)" />
    <linearGradient
       inkscape:collect="always"
       xlink:href="#linearGradient2466"
       id="linearGradient290"
       gradientUnits="userSpaceOnUse"
       x1="239.41"
       y1="367.48001"
       x2="222.23"
       y2="304.85001"
       gradientTransform="matrix(0.94336497,-0.04684188,0.03718734,0.98016753,161.52985,-127.41077)" />
    <linearGradient
       inkscape:collect="always"
       xlink:href="#linearGradient2466"
       id="linearGradient292"
       gradientUnits="userSpaceOnUse"
       x1="239.41"
       y1="367.48001"
       x2="222.23"
       y2="304.85001"
       gradientTransform="matrix(0.93305,-0.1468,0.14111,0.97067,24.763,-211.38)" />
    <linearGradient
       inkscape:collect="always"
       xlink:href="#linearGradient1068"
       id="linearGradient1070"
       x1="467.16565"
       y1="974.53888"
       x2="893.39899"
       y2="-2.2786381"
       gradientUnits="userSpaceOnUse" />
  </defs>
  <sodipodi:namedview
     id="base"
     bordercolor="#666666"
     inkscape:pageshadow="2"
     guidetolerance="10"
     pagecolor="#ffffff"
     gridtolerance="10000"
     inkscape:window-height="1407"
     inkscape:zoom="0.9899495"
     objecttolerance="10"
     showgrid="false"
     borderopacity="1.0"
     inkscape:current-layer="layer1"
     inkscape:cx="103.56612"
     inkscape:cy="528.48763"
     inkscape:window-y="362"
     inkscape:window-x="286"
     inkscape:window-width="1980"
     showborder="true"
     inkscape:pageopacity="0.0"
     inkscape:document-units="px"
     inkscape:document-rotation="0"
     inkscape:window-maximized="0" />
  <g
     id="layer1"
     inkscape:label="Layer 1"
     inkscape:groupmode="layer"
     transform="translate(-163.11,-11.889)">
    <g
       id="g1064"
       inkscape:export-filename="/home/djo/Faith/thebeginning.life/thebeginning-life.github.io/public/logos/logo-1024.png"
       inkscape:export-xdpi="98.300003"
       inkscape:export-ydpi="98.300003">
      <rect
         style="fill:url(#linearGradient1070);fill-opacity:1;fill-rule:evenodd;stroke:#000000;stroke-width:1.06871;stroke-opacity:1"
         id="rect87"
         width="998.93127"
         height="998.93073"
         x="163.64407"
         y="12.423639" />
      <g
         id="g438"
         inkscape:export-filename="/home/djo/Faith/thebeginning.life/thebeginning-life.github.io/public/logos/logo-48.png"
         inkscape:export-xdpi="5.7697725"
         inkscape:export-ydpi="5.7697725"
         transform="matrix(1.3806561,0,0,1.1239023,190.44257,73.782198)">
        <path
           id="path2385"
           inkscape:tile-x0="209.625"
           style="fill:url(#linearGradient292);fill-rule:evenodd;stroke:#000000;stroke-width:0.962496px"
           d="m 272.36689,12.46673 c -0.18657,8.498547 -0.39322,16.990324 -0.53173,25.491238 -0.1363,7.597052 -0.33932,15.194673 -0.46629,22.790257 -0.0848,0.926781 0.0493,1.848917 0.07,2.778963 -0.1207,0.942359 -0.34543,1.891159 -0.17774,2.847719 -0.0679,1.04326 -0.1651,2.081219 -0.22503,3.113305 -0.13373,2.165643 -0.39441,4.311543 -0.52815,6.477186 -0.12682,1.687978 -0.24431,3.374488 -0.27501,5.067199 -0.21431,4.303065 -0.53408,8.602864 -0.68959,12.916535 0.0777,1.387728 0.16326,2.764282 0.26892,4.147607 0.46177,1.863447 0.89838,3.750711 1.71417,5.488961 0.79594,1.93001 1.91226,3.70041 3.26585,5.26468 0.71058,0.752 1.396,1.52782 2.17277,2.20983 1.27902,1.24836 2.72208,2.31205 4.31224,3.07459 1.24949,0.71686 2.53856,1.37784 3.92299,1.77561 0.97279,0.32352 1.94841,0.66646 2.96989,0.73411 1.85182,0.26465 3.72544,0.41666 5.58895,0.30219 1.20786,-0.16026 2.41518,-0.38992 3.58127,-0.77196 0.98284,-0.26385 1.86736,-0.81009 2.77251,-1.28015 0.865,-0.4836 1.76591,-0.98278 2.42855,-1.74233 0.98105,-0.99829 1.88268,-2.08337 2.61386,-3.29057 0.51085,-0.8846 0.93999,-1.80599 1.32617,-2.76033 0.55899,-1.20989 0.85564,-2.51751 0.99594,-3.85018 0.19346,-1.36088 0.19467,-2.73124 0.13849,-4.102487 -0.004,-1.210642 -0.40029,-2.359627 -0.75624,-3.495071 -0.40996,-1.047515 -0.90108,-2.062404 -1.51295,-2.988794 -0.70313,-1.160249 -1.59601,-2.181429 -2.58674,-3.087926 -0.84882,-0.849395 -1.82207,-1.569997 -2.76082,-2.315884 -1.82325,-1.381166 -3.78905,-2.561187 -5.67424,-3.843248 -1.02218,-0.66326 -2.04295,-1.316813 -3.01903,-2.056828 -1.00516,-0.874441 -1.85562,-1.932081 -2.77876,-2.898856 -0.99661,-1.143861 -1.9918,-2.278016 -2.94458,-3.448631 -1.1048,-1.494202 -2.08885,-3.076903 -3.10882,-4.644024 -0.82324,-1.329997 -1.43525,-2.782586 -2.14426,-4.180201 -1.1105,-2.386888 -2.17576,-4.790824 -3.10813,-7.265313 -0.78151,-1.962071 -1.55511,-3.935316 -2.3273,-5.898855 -0.28726,-1.056892 -0.65849,-2.100572 -0.69524,-3.206806 -0.44651,-7.207495 -0.66627,-14.430809 -0.98075,-21.649149 -0.20398,-4.882621 -0.40936,-9.774948 -0.60401,-14.659036 -0.0737,-0.375626 -0.1488,-0.760958 -0.22391,-1.14629 z"
           sodipodi:nodetypes="ccccccccccc"
           inkscape:tile-w="39.506181"
           inkscape:tile-h="108.72521"
           inkscape:tile-cx="229.37809"
           inkscape:tile-cy="318.95635"
           inkscape:tile-y0="264.59375" />
        <use
           id="use4257"
           xlink:href="#path2385"
           transform="matrix(0.99822014,-0.06204258,0.05732663,0.99822007,-3.1956403,17.721765)"
           height="1052.3622"
           width="744.09448"
           inkscape:tiled-clone-of="#path2385"
           y="0"
           x="0" />
        <use
           id="use4259"
           xlink:href="#path2385"
           transform="matrix(0.99066012,-0.14182676,0.13104628,0.9906599,-4.4627014,92.131646)"
           height="1052.3622"
           width="744.09448"
           inkscape:tiled-clone-of="#path2385"
           y="0"
           x="0" />
        <use
           id="use4261"
           xlink:href="#path2385"
           transform="matrix(0.99820006,-0.06247744,0.05772842,0.99819994,-0.51985487,120.41357)"
           height="1052.3622"
           width="744.09448"
           inkscape:tiled-clone-of="#path2385"
           y="0"
           x="0" />
        <use
           id="use4263"
           xlink:href="#path2385"
           transform="matrix(0.96443011,-0.27498764,0.25408542,0.96442987,-2.265935,234.17375)"
           height="1052.3622"
           width="744.09448"
           inkscape:tiled-clone-of="#path2385"
           y="0"
           x="0" />
        <use
           id="use4265"
           xlink:href="#path2385"
           transform="matrix(0.92194017,-0.40295734,0.37232793,0.92193979,3.5053089,324.51359)"
           height="1052.3622"
           width="744.09448"
           inkscape:tiled-clone-of="#path2385"
           y="0"
           x="0" />
        <use
           id="use4267"
           xlink:href="#path2385"
           transform="matrix(0.9498702,-0.32525588,0.30053268,0.94986983,1.5646855,351.94799)"
           height="1052.3622"
           width="744.09448"
           inkscape:tiled-clone-of="#path2385"
           y="0"
           x="0" />
        <use
           id="use4269"
           xlink:href="#path2385"
           transform="matrix(0.87153026,-0.51011025,0.47133598,0.87152974,14.113669,460.73896)"
           height="1052.3622"
           width="744.09448"
           inkscape:tiled-clone-of="#path2385"
           y="0"
           x="0" />
        <use
           id="use4271"
           xlink:href="#path2385"
           transform="matrix(0.87574026,-0.50224543,0.46406899,0.87573974,14.739475,509.51976)"
           height="1052.3622"
           width="744.09448"
           inkscape:tiled-clone-of="#path2385"
           y="0"
           x="0" />
        <use
           id="use4273"
           xlink:href="#path2385"
           transform="matrix(-0.92139844,0.40428952,0.3735579,0.92139843,562.48399,-99.860791)"
           height="1052.3622"
           width="744.09448"
           inkscape:tiled-clone-of="#path2385"
           y="0"
           x="0" />
        <use
           id="use4275"
           xlink:href="#path2385"
           transform="matrix(-0.99172709,0.13352676,0.12337616,0.99172707,599.93635,23.71856)"
           height="1052.3622"
           width="744.09448"
           inkscape:tiled-clone-of="#path2385"
           y="0"
           x="0" />
        <use
           id="use4277"
           xlink:href="#path2385"
           transform="matrix(-0.99102251,0.1390608,0.12848956,0.99102255,600.75363,73.472315)"
           height="1052.3622"
           width="744.09448"
           inkscape:tiled-clone-of="#path2385"
           y="0"
           x="0" />
        <use
           id="use4279"
           xlink:href="#path2385"
           transform="matrix(-0.98247139,0.19393811,0.17919556,0.98247141,596.39676,109.73804)"
           height="1052.3622"
           width="744.09448"
           inkscape:tiled-clone-of="#path2385"
           y="0"
           x="0" />
        <use
           id="use4281"
           xlink:href="#path2385"
           transform="matrix(-0.99997808,0.00753766,0.00696369,0.99997811,613.83057,212.78131)"
           height="1052.3622"
           width="744.09448"
           inkscape:tiled-clone-of="#path2385"
           y="0"
           x="0" />
        <use
           id="use4283"
           xlink:href="#path2385"
           transform="matrix(-0.98661126,-0.16967093,-0.156775,0.98661127,621.95521,315.21533)"
           height="1052.3622"
           width="744.09448"
           inkscape:tiled-clone-of="#path2385"
           y="0"
           x="0" />
        <use
           id="use4285"
           xlink:href="#path2385"
           transform="matrix(-0.97234923,-0.2429375,-0.22447245,0.97234923,623.62238,388.2045)"
           height="1052.3622"
           width="744.09448"
           inkscape:tiled-clone-of="#path2385"
           y="0"
           x="0" />
        <use
           id="use4287"
           xlink:href="#path2385"
           transform="matrix(-0.96586825,-0.26949491,-0.24901118,0.96586825,624.71047,447.45189)"
           height="1052.3622"
           width="744.09448"
           inkscape:tiled-clone-of="#path2385"
           y="0"
           x="0" />
        <path
           id="path4289"
           style="fill:#e2c86a;stroke:#000000;stroke-width:0.450179;stroke-linecap:round"
           d="m 338.33395,487.83496 c 2.05856,34.88616 2.48326,69.97869 -0.71471,104.78664 0.35105,17.64279 0.21895,35.4239 -2.91344,52.78755 -1.96122,26.75598 -4.00845,53.83287 -12.30425,79.27341 -5.10335,18.14368 -10.71179,36.89871 -21.29279,52.07968 -4.26634,3.68337 -15.16445,15.27747 -18.02897,8.95592 15.00433,-27.03254 22.14172,-58.35214 27.55875,-89.21142 1.98257,-20.77285 3.04994,-41.71821 6.05901,-62.32756 -0.45545,-18.65982 0.0899,-37.34347 1.69071,-55.90675 0.60451,-23.12849 1.62321,-46.39334 -1.03013,-69.41726 1.82982,-11.81987 14.42904,-13.56433 20.97582,-21.02021 z" />
        <path
           id="path212"
           inkscape:tile-x0="209.625"
           style="fill:url(#linearGradient250);fill-rule:evenodd;stroke:#000000;stroke-width:0.962499px"
           d="m 166.44409,174.85509 c 0.84355,8.45867 1.66635,16.91304 2.55789,25.36824 0.78433,7.55771 1.50249,15.12407 2.2959,22.67919 0.028,0.93024 0.27273,1.82937 0.40584,2.75007 -0.006,0.95005 -0.11397,1.91908 0.16828,2.84831 0.0589,1.0438 0.088,2.0859 0.15349,3.11766 0.1294,2.16591 0.1304,4.3276 0.2598,6.49351 0.0784,1.69092 0.16596,3.37926 0.34039,5.06325 0.30815,4.29738 0.51122,8.60428 0.87903,12.90507 0.24508,1.36813 0.49667,2.7242 0.76901,4.08457 0.68395,1.79385 1.3458,3.61439 2.366,5.24111 1.02373,1.81948 2.34615,3.44173 3.87914,4.83066 0.79639,0.66045 1.57069,1.3476 2.4243,1.93057 1.42074,1.08436 2.98195,1.96555 4.65273,2.53 1.32708,0.56034 2.68669,1.06042 4.10909,1.28767 1.00481,0.2034 2.01476,0.42572 3.03693,0.36921 1.87024,0.0385 3.74849,-0.0374 5.58444,-0.37657 1.1796,-0.30529 2.35024,-0.67941 3.46151,-1.19979 0.94368,-0.38089 1.75558,-1.03019 2.59717,-1.60636 0.8001,-0.58475 1.63397,-1.18931 2.19979,-2.02349 0.853,-1.10972 1.61666,-2.29597 2.19633,-3.5828 0.40001,-0.93994 0.71446,-1.9065 0.98228,-2.90057 0.40843,-1.26867 0.54461,-2.60259 0.52256,-3.94244 0.0273,-1.3743 -0.13738,-2.73473 -0.35914,-4.0891 -0.15072,-1.20124 -0.68298,-2.29383 -1.17375,-3.37784 -0.53376,-0.99019 -1.14412,-1.93817 -1.86363,-2.78368 -0.83841,-1.06661 -1.84834,-1.9722 -2.94152,-2.75211 -0.9454,-0.7404 -1.99873,-1.3379 -3.02087,-1.96466 -1.97704,-1.15031 -4.07123,-2.0837 -6.09776,-3.12814 -1.09496,-0.53465 -2.18733,-1.05983 -3.24581,-1.67626 -1.10363,-0.74633 -2.07586,-1.69325 -3.10925,-2.54117 -1.12775,-1.01482 -2.25292,-2.02017 -3.34039,-3.06685 -1.27756,-1.34948 -2.44596,-2.80143 -3.64813,-4.23357 -0.97819,-1.22056 -1.76154,-2.58839 -2.63451,-3.88991 -1.39128,-2.23492 -2.73971,-4.49223 -3.96475,-6.83567 -1.01328,-1.85305 -2.02006,-3.71815 -3.02425,-5.57378 -0.41309,-1.01435 -0.90793,-2.00542 -1.07832,-3.09908 -1.3157,-7.10047 -2.40823,-14.24409 -3.59417,-21.37131 -0.79352,-4.82204 -1.58962,-9.65355 -2.37405,-14.47817 -0.11862,-0.36395 -0.23982,-0.73736 -0.36102,-1.11076 z"
           sodipodi:nodetypes="ccccccccccc"
           inkscape:tile-w="39.506181"
           inkscape:tile-h="108.72521"
           inkscape:tile-cx="229.37809"
           inkscape:tile-cy="318.95635"
           inkscape:tile-y0="264.59375" />
        <use
           id="use214"
           xlink:href="#path2385"
           transform="matrix(0.98337297,-0.18242111,0.17773982,0.98394376,-106.45693,213.42834)"
           height="1052.3622"
           width="744.09448"
           inkscape:tiled-clone-of="#path2385"
           y="0"
           x="0" />
        <use
           id="use216"
           xlink:href="#path2385"
           transform="matrix(0.96621063,-0.26070373,0.25000247,0.9675154,-98.707366,287.44469)"
           height="1052.3622"
           width="744.09448"
           inkscape:tiled-clone-of="#path2385"
           y="0"
           x="0" />
        <use
           id="use218"
           xlink:href="#path2385"
           transform="matrix(0.9833004,-0.18285034,0.17813622,0.98387515,-91.369972,315.04146)"
           height="1052.3622"
           width="744.09448"
           inkscape:tiled-clone-of="#path2385"
           y="0"
           x="0" />
        <use
           id="use220"
           xlink:href="#path2385"
           transform="matrix(0.92405429,-0.38971074,0.36896213,0.92658427,-79.332549,428.17686)"
           height="1052.3622"
           width="744.09448"
           inkscape:tiled-clone-of="#path2385"
           y="0"
           x="0" />
        <use
           id="use222"
           xlink:href="#path2385"
           transform="matrix(0.86638592,-0.51159646,0.48119214,0.87009324,-62.668085,517.1541)"
           height="1052.3622"
           width="744.09448"
           inkscape:tiled-clone-of="#path2385"
           y="0"
           x="0" />
        <use
           id="use224"
           xlink:href="#path2385"
           transform="matrix(0.90351642,-0.43784704,0.41330551,0.90650881,-61.27351,544.62177)"
           height="1052.3622"
           width="744.09448"
           inkscape:tiled-clone-of="#path2385"
           y="0"
           x="0" />
        <use
           id="use226"
           xlink:href="#path2385"
           transform="matrix(0.80337567,-0.61185967,0.57337034,0.80806877,-35.647615,651.09407)"
           height="1052.3622"
           width="744.09448"
           inkscape:tiled-clone-of="#path2385"
           y="0"
           x="0" />
        <use
           id="use228"
           xlink:href="#path2385"
           transform="matrix(0.80850676,-0.60456229,0.56666638,0.8131275,-29.121492,699.44058)"
           height="1052.3622"
           width="744.09448"
           inkscape:tiled-clone-of="#path2385"
           y="0"
           x="0" />
        <use
           id="use230"
           xlink:href="#path2385"
           transform="matrix(-0.86568691,0.51285327,0.48234754,0.86940696,440.83158,28.2345)"
           height="1052.3622"
           width="744.09448"
           inkscape:tiled-clone-of="#path2385"
           y="0"
           x="0" />
        <use
           id="use232"
           xlink:href="#path2385"
           transform="matrix(-0.96827448,0.2525939,0.24251792,0.96950319,492.96794,146.37194)"
           height="1052.3622"
           width="744.09448"
           inkscape:tiled-clone-of="#path2385"
           y="0"
           x="0" />
        <use
           id="use234"
           xlink:href="#path2385"
           transform="matrix(-0.96690518,0.25800198,0.24750844,0.96818487,499.80192,195.66107)"
           height="1052.3622"
           width="744.09448"
           inkscape:tiled-clone-of="#path2385"
           y="0"
           x="0" />
        <use
           id="use236"
           xlink:href="#path2385"
           transform="matrix(-0.95177401,0.31144083,0.29680664,0.95355862,499.86704,232.18763)"
           height="1052.3622"
           width="744.09448"
           inkscape:tiled-clone-of="#path2385"
           y="0"
           x="0" />
        <use
           id="use238"
           xlink:href="#path2385"
           transform="matrix(-0.9917158,0.12852961,0.12795987,0.99178532,529.6461,332.36318)"
           height="1052.3622"
           width="744.09448"
           inkscape:tiled-clone-of="#path2385"
           y="0"
           x="0" />
        <use
           id="use240"
           xlink:href="#path2385"
           transform="matrix(-0.99989833,-0.04899456,-0.0361934,0.99833729,550.11065,433.06082)"
           height="1052.3622"
           width="744.09448"
           inkscape:tiled-clone-of="#path2385"
           y="0"
           x="0" />
        <use
           id="use242"
           xlink:href="#path2385"
           transform="matrix(-0.99461005,-0.12344904,-0.10511969,0.99237486,560.60091,505.31171)"
           height="1052.3622"
           width="744.09448"
           inkscape:tiled-clone-of="#path2385"
           y="0"
           x="0" />
        <use
           id="use244"
           xlink:href="#path2385"
           transform="matrix(-0.99139148,-0.15059577,-0.13026259,0.98891192,568.8529,563.99192)"
           height="1052.3622"
           width="744.09448"
           inkscape:tiled-clone-of="#path2385"
           y="0"
           x="0" />
        <path
           id="path246"
           style="fill:#e2c86a;stroke:#000000;stroke-width:0.303721;stroke-linecap:round"
           d="m 277.70421,640.50201 c 5.70954,16.47515 9.90155,33.14936 10.64862,49.91176 2.23718,8.37448 4.03392,16.84462 2.95797,25.30128 1.04266,12.85415 2.03893,25.86633 -3.03054,38.48549 -2.84918,8.94954 -6.10832,18.2212 -14.44,26.09891 -3.62279,2.01626 -12.64089,8.20657 -16.02358,5.37498 11.21985,-13.79088 14.56232,-29.13636 16.33322,-44.15658 -0.37606,-10.00811 -1.63326,-20.04183 -1.02423,-30.0355 -2.44543,-8.85205 -3.95014,-17.7772 -4.44734,-26.71022 -1.92932,-11.04409 -3.48301,-22.17865 -8.47141,-32.97187 0.44737,-5.738 12.13293,-7.3459 17.49729,-11.29825 z" />
        <path
           id="path252"
           inkscape:tile-x0="209.625"
           style="fill:url(#linearGradient290);fill-rule:evenodd;stroke:#000000;stroke-width:0.962496px"
           d="m 383.95083,121.47442 c -1.08841,8.43063 -2.19605,16.85239 -3.23692,25.29047 -0.94263,7.53957 -1.95167,15.07262 -2.88488,22.61173 -0.18276,0.91252 -0.14743,1.84368 -0.22568,2.77066 -0.22012,0.9242 -0.54439,1.84376 -0.47927,2.81272 -0.1783,1.03015 -0.38527,2.0519 -0.55451,3.07178 -0.36306,2.13917 -0.85024,4.24523 -1.2133,6.38441 -0.30543,1.66495 -0.60144,3.32943 -0.81179,5.0093 -0.67026,4.25594 -1.44503,8.49743 -2.05794,12.77017 -0.0702,1.38812 -0.13134,2.76598 -0.17325,4.1527 0.26119,1.90196 0.49482,3.82492 1.12132,5.64 0.5864,2.00366 1.50831,3.88263 2.68805,5.58185 0.62667,0.82324 1.22579,1.66748 1.9257,2.42816 1.13916,1.37718 2.46105,2.58816 3.96119,3.51532 1.16625,0.84555 2.37781,1.63974 3.71215,2.18233 0.93291,0.42505 1.86657,0.86969 2.87509,1.04548 1.81322,0.4599 3.66008,0.8101 5.5252,0.89425 1.21806,-0.031 2.44294,-0.13112 3.64301,-0.38711 1.00531,-0.15794 1.94287,-0.60712 2.89283,-0.97836 0.91148,-0.38896 1.86032,-0.7896 2.5999,-1.47445 1.08157,-0.88842 2.09337,-1.87157 2.94866,-2.99426 0.60194,-0.82531 1.12654,-1.6959 1.61192,-2.60381 0.68437,-1.14366 1.11826,-2.41236 1.39935,-3.72257 0.33695,-1.33263 0.48374,-2.6951 0.57355,-4.06456 0.12444,-1.20424 -0.14734,-2.3888 -0.38063,-3.55563 -0.29636,-1.08514 -0.67688,-2.14646 -1.18687,-3.13262 -0.57588,-1.22838 -1.35521,-2.33864 -2.24403,-3.34526 -0.75378,-0.93477 -1.64496,-1.75469 -2.49916,-2.59609 -1.66619,-1.56705 -3.4955,-2.94923 -5.23382,-4.42432 -0.94593,-0.7681 -1.89149,-1.52641 -2.78342,-2.36593 -0.90657,-0.97628 -1.63985,-2.11829 -2.45506,-3.17766 -0.86944,-1.24327 -1.73851,-2.47674 -2.56153,-3.74195 -0.9398,-1.60312 -1.75014,-3.2814 -2.59784,-4.94802 -0.67729,-1.40993 -1.13151,-2.91932 -1.68802,-4.38434 -0.85063,-2.49136 -1.65447,-4.99487 -2.31867,-7.5544 -0.56864,-2.034 -1.12822,-4.07826 -1.68743,-6.11272 -0.17335,-1.08143 -0.4316,-2.15864 -0.35061,-3.26252 0.32173,-7.21414 0.87062,-14.41992 1.3248,-21.63081 0.31591,-4.87666 0.63144,-9.76311 0.95678,-14.64024 -0.0334,-0.38133 -0.0671,-0.77246 -0.10085,-1.16359 z"
           sodipodi:nodetypes="ccccccccccc"
           inkscape:tile-w="39.506181"
           inkscape:tile-h="108.72521"
           inkscape:tile-cx="229.37809"
           inkscape:tile-cy="318.95635"
           inkscape:tile-y0="264.59375" />
        <use
           id="use254"
           xlink:href="#path2385"
           transform="matrix(0.99916162,0.04435949,-0.04904874,0.99866052,109.38968,97.423952)"
           height="1052.3622"
           width="744.09448"
           inkscape:tiled-clone-of="#path2385"
           y="0"
           x="0" />
        <use
           id="use256"
           xlink:href="#path2385"
           transform="matrix(1.0001207,-0.03577629,0.02505685,0.99897512,100.22449,171.27806)"
           height="1052.3622"
           width="744.09448"
           inkscape:tiled-clone-of="#path2385"
           y="0"
           x="0" />
        <use
           id="use258"
           xlink:href="#path2385"
           transform="matrix(0.99918785,0.04392496,-0.04864708,0.99868319,101.14035,199.8188)"
           height="1052.3622"
           width="744.09448"
           inkscape:tiled-clone-of="#path2385"
           y="0"
           x="0" />
        <use
           id="use260"
           xlink:href="#path2385"
           transform="matrix(0.98818612,-0.17097016,0.15018627,0.98596523,87.31827,312.74959)"
           height="1052.3622"
           width="744.09448"
           inkscape:tiled-clone-of="#path2385"
           y="0"
           x="0" />
        <use
           id="use262"
           xlink:href="#path2385"
           transform="matrix(0.95953218,-0.30272968,0.27227368,0.95627773,83.459144,403.19124)"
           height="1052.3622"
           width="744.09448"
           inkscape:tiled-clone-of="#path2385"
           y="0"
           x="0" />
        <use
           id="use264"
           xlink:href="#path2385"
           transform="matrix(0.97904912,-0.22250072,0.1979175,0.97642215,78.614874,430.2642)"
           height="1052.3622"
           width="744.09448"
           inkscape:tiled-clone-of="#path2385"
           y="0"
           x="0" />
        <use
           id="use266"
           xlink:href="#path2385"
           transform="matrix(0.92079152,-0.41463165,0.37607691,0.91667161,79.534878,539.77261)"
           height="1052.3622"
           width="744.09448"
           inkscape:tiled-clone-of="#path2385"
           y="0"
           x="0" />
        <use
           id="use268"
           xlink:href="#path2385"
           transform="matrix(0.92414212,-0.40636408,0.36840377,0.92008574,74.97467,588.3438)"
           height="1052.3622"
           width="744.09448"
           inkscape:tiled-clone-of="#path2385"
           y="0"
           x="0" />
        <use
           id="use270"
           xlink:href="#path2385"
           transform="matrix(-0.95913504,0.30411187,0.2735542,0.9558701,684.35954,40.604717)"
           height="1052.3622"
           width="744.09448"
           inkscape:tiled-clone-of="#path2385"
           y="0"
           x="0" />
        <use
           id="use272"
           xlink:href="#path2385"
           transform="matrix(-1.0002998,0.02740992,0.01731677,0.99922138,708.47085,167.46355)"
           height="1052.3622"
           width="744.09448"
           inkscape:tiled-clone-of="#path2385"
           y="0"
           x="0" />
        <use
           id="use274"
           xlink:href="#path2385"
           transform="matrix(-1.0001871,0.03298748,0.02247607,0.99906408,703.99767,217.02252)"
           height="1052.3622"
           width="744.09448"
           inkscape:tiled-clone-of="#path2385"
           y="0"
           x="0" />
        <use
           id="use276"
           xlink:href="#path2385"
           transform="matrix(-0.99751459,0.08846266,0.07380356,0.99594836,695.81259,252.62011)"
           height="1052.3622"
           width="744.09448"
           inkscape:tiled-clone-of="#path2385"
           y="0"
           x="0" />
        <use
           id="use278"
           xlink:href="#path2385"
           transform="matrix(-0.995119,-0.09874267,-0.09931339,0.99505806,702.20041,356.93233)"
           height="1052.3622"
           width="744.09448"
           inkscape:tiled-clone-of="#path2385"
           y="0"
           x="0" />
        <use
           id="use280"
           xlink:href="#path2385"
           transform="matrix(-0.9630012,-0.27352817,-0.26070523,0.96437127,699.39646,459.64973)"
           height="1052.3622"
           width="744.09448"
           inkscape:tiled-clone-of="#path2385"
           y="0"
           x="0" />
        <use
           id="use282"
           xlink:href="#path2385"
           transform="matrix(-0.94103606,-0.34486486,-0.32650431,0.94299778,693.29983,532.4029)"
           height="1052.3622"
           width="744.09448"
           inkscape:tiled-clone-of="#path2385"
           y="0"
           x="0" />
        <use
           id="use284"
           xlink:href="#path2385"
           transform="matrix(-0.9317703,-0.37058341,-0.35021562,0.93394648,688.08732,591.43055)"
           height="1052.3622"
           width="744.09448"
           inkscape:tiled-clone-of="#path2385"
           y="0"
           x="0" />
        <path
           id="path286"
           style="fill:#e2c86a;stroke:#000000;stroke-width:0.383865;stroke-linecap:round"
           d="m 386.83326,599.96922 c -1.47828,24.69213 -4.64831,49.39882 -11.49322,73.61595 -1.4531,12.43229 -3.41446,24.92323 -8.40061,36.88093 -4.75336,18.65481 -9.62759,37.52837 -20.72274,54.75217 -7.08152,12.34864 -14.74227,25.08675 -27.12022,34.91469 -4.7405,2.24881 -17.07428,9.52958 -19.35389,4.85617 18.11791,-17.80708 28.63243,-39.25688 37.34069,-60.52051 4.16066,-14.44649 7.40327,-29.0874 12.59671,-43.33694 1.45083,-13.15567 3.92751,-26.24814 7.47077,-39.17165 2.99359,-16.21281 6.42467,-32.4884 6.07643,-48.88798 3.08493,-8.16408 16.14642,-8.38387 23.60608,-13.10283 z" />
        <path
           id="path172"
           inkscape:tile-x0="209.625"
           style="fill:url(#linearGradient210);fill-rule:evenodd;stroke:#000000;stroke-width:0.962494px"
           d="m 463.07594,256.66596 c -1.85172,8.29645 -3.72179,16.58231 -5.52684,24.89051 -1.6254,7.42238 -3.31634,14.83221 -4.9323,22.25498 -0.26511,0.89209 -0.31474,1.82259 -0.47709,2.73859 -0.30338,0.90031 -0.71005,1.78651 -0.73345,2.75737 -0.27138,1.00963 -0.57055,2.00828 -0.83198,3.0085 -0.55637,2.09722 -1.23334,4.15016 -1.78972,6.24737 -0.45581,1.63021 -0.90218,3.26082 -1.26466,4.91454 -1.05509,4.1772 -2.21294,8.3305 -3.21245,12.52964 -0.19634,1.37596 -0.38271,2.74252 -0.55074,4.11966 0.0869,1.91784 0.1444,3.85409 0.60298,5.71868 0.40147,2.04873 1.14842,4.00386 2.16849,5.80347 0.54909,0.87688 1.06882,1.77218 1.69654,2.59345 1.009,1.4752 2.2151,2.80154 3.62457,3.86148 1.08439,0.94825 2.21858,1.84948 3.49794,2.51135 0.89033,0.50824 1.77961,1.03608 2.76792,1.30298 1.7638,0.62313 3.57109,1.14008 5.42079,1.39375 1.21582,0.0801 2.44473,0.0919 3.66312,-0.0537 1.01552,-0.0657 1.99008,-0.42765 2.96991,-0.71082 0.94311,-0.30433 1.9245,-0.61689 2.72338,-1.23153 1.15798,-0.78622 2.25513,-1.67313 3.20911,-2.71325 0.6746,-0.76707 1.27631,-1.58625 1.84237,-2.44618 0.78568,-1.07657 1.33332,-2.30048 1.73257,-3.57965 0.45692,-1.2964 0.72719,-2.63984 0.94136,-3.99542 0.23359,-1.1879 0.0708,-2.39229 -0.0552,-3.57552 -0.1963,-1.10762 -0.47857,-2.19918 -0.89662,-3.22768 -0.46161,-1.27573 -1.13659,-2.45235 -1.93003,-3.53574 -0.6655,-0.99953 -1.47831,-1.89721 -2.25232,-2.81291 -1.51655,-1.71229 -3.21236,-3.25534 -4.80911,-4.88261 -0.87204,-0.85106 -1.7446,-1.69233 -2.55636,-2.6096 -0.81388,-1.05479 -1.44011,-2.25883 -2.15544,-3.38805 -0.7526,-1.31729 -1.50571,-2.62478 -2.21008,-3.95969 -0.78989,-1.68205 -1.444,-3.42716 -2.13639,-5.16405 -0.54605,-1.46575 -0.86092,-3.01024 -1.28168,-4.51986 -0.6202,-2.55847 -1.19268,-5.12478 -1.621,-7.73417 -0.38103,-2.07732 -0.7521,-4.16405 -1.12369,-6.24099 -0.0741,-1.09272 -0.2332,-2.18898 -0.052,-3.28089 0.97744,-7.15484 2.18033,-14.28067 3.28937,-21.42022 0.75874,-4.82761 1.51801,-9.66501 2.28619,-14.49223 0.002,-0.38278 0.004,-0.77536 0.006,-1.16793 z"
           sodipodi:nodetypes="ccccccccccc"
           inkscape:tile-w="39.506181"
           inkscape:tile-h="108.72521"
           inkscape:tile-cx="229.37809"
           inkscape:tile-cy="318.95635"
           inkscape:tile-y0="264.59375" />
        <use
           id="use174"
           xlink:href="#path2385"
           transform="matrix(0.99096747,0.13517589,-0.13980001,0.99004138,191.84673,207.70923)"
           height="1052.3622"
           width="744.09448"
           inkscape:tiled-clone-of="#path2385"
           y="0"
           x="0" />
        <use
           id="use176"
           xlink:href="#path2385"
           transform="matrix(0.99922106,0.05546063,-0.06603117,0.997104,175.99322,280.42154)"
           height="1052.3622"
           width="744.09448"
           inkscape:tiled-clone-of="#path2385"
           y="0"
           x="0" />
        <use
           id="use178"
           xlink:href="#path2385"
           transform="matrix(0.99103317,0.13474556,-0.13940209,0.99010054,174.30586,308.92704)"
           height="1052.3622"
           width="744.09448"
           inkscape:tiled-clone-of="#path2385"
           y="0"
           x="0" />
        <use
           id="use180"
           xlink:href="#path2385"
           transform="matrix(0.99964922,-0.08025814,0.05976293,0.99554463,150.25583,420.12944)"
           height="1052.3622"
           width="744.09448"
           inkscape:tiled-clone-of="#path2385"
           y="0"
           x="0" />
        <use
           id="use182"
           xlink:href="#path2385"
           transform="matrix(0.98311469,-0.21407959,0.18404661,0.97709993,138.17557,509.84361)"
           height="1052.3622"
           width="744.09448"
           inkscape:tiled-clone-of="#path2385"
           y="0"
           x="0" />
        <use
           id="use184"
           xlink:href="#path2385"
           transform="matrix(0.99524347,-0.13240664,0.10816487,0.99038845,130.88571,536.3628)"
           height="1052.3622"
           width="744.09448"
           inkscape:tiled-clone-of="#path2385"
           y="0"
           x="0" />
        <use
           id="use186"
           xlink:href="#path2385"
           transform="matrix(0.95472681,-0.32904472,0.29102549,0.94711258,121.82818,645.49973)"
           height="1052.3622"
           width="744.09448"
           inkscape:tiled-clone-of="#path2385"
           y="0"
           x="0" />
        <use
           id="use188"
           xlink:href="#path2385"
           transform="matrix(0.95731051,-0.32050636,0.28307331,0.94981367,112.8632,693.45365)"
           height="1052.3622"
           width="744.09448"
           inkscape:tiled-clone-of="#path2385"
           y="0"
           x="0" />
        <use
           id="use190"
           xlink:href="#path2385"
           transform="matrix(-0.9828451,0.21549221,0.18535894,0.97681062,769.60109,203.49285)"
           height="1052.3622"
           width="744.09448"
           inkscape:tiled-clone-of="#path2385"
           y="0"
           x="0" />
        <use
           id="use192"
           xlink:href="#path2385"
           transform="matrix(-0.99863747,-0.06380853,-0.0737615,0.99664428,782.05821,332.02026)"
           height="1052.3622"
           width="744.09448"
           inkscape:tiled-clone-of="#path2385"
           y="0"
           x="0" />
        <use
           id="use194"
           xlink:href="#path2385"
           transform="matrix(-0.99903328,-0.05824389,-0.06860932,0.99695754,773.08993,380.96579)"
           height="1052.3622"
           width="744.09448"
           inkscape:tiled-clone-of="#path2385"
           y="0"
           x="0" />
        <use
           id="use196"
           xlink:href="#path2385"
           transform="matrix(-1.0014244,-0.00275594,-0.01721146,0.99852953,761.69676,415.6699)"
           height="1052.3622"
           width="744.09448"
           inkscape:tiled-clone-of="#path2385"
           y="0"
           x="0" />
        <use
           id="use198"
           xlink:href="#path2385"
           transform="matrix(-0.9819886,-0.18896478,-0.18952759,0.98187593,758.55755,520.13023)"
           height="1052.3622"
           width="744.09448"
           inkscape:tiled-clone-of="#path2385"
           y="0"
           x="0" />
        <use
           id="use200"
           xlink:href="#path2385"
           transform="matrix(-0.93408535,-0.36009842,-0.34745357,0.9366176,746.41005,622.1652)"
           height="1052.3622"
           width="744.09448"
           inkscape:tiled-clone-of="#path2385"
           y="0"
           x="0" />
        <use
           id="use202"
           xlink:href="#path2385"
           transform="matrix(-0.90571438,-0.429138,-0.41103246,0.90934018,733.71261,694.06064)"
           height="1052.3622"
           width="744.09448"
           inkscape:tiled-clone-of="#path2385"
           y="0"
           x="0" />
        <use
           id="use204"
           xlink:href="#path2385"
           transform="matrix(-0.89414477,-0.45390573,-0.43382082,0.89816696,723.1457,752.36814)"
           height="1052.3622"
           width="744.09448"
           inkscape:tiled-clone-of="#path2385"
           y="0"
           x="0" />
        <path
           id="path206"
           style="fill:#e2c86a;stroke:#000000;stroke-width:0.228945;stroke-linecap:round"
           d="m 423.15622,737.21716 c -4.39948,9.00407 -10.43077,17.97203 -19.944,26.67076 -2.89803,4.51613 -6.29286,9.04126 -12.53801,13.2971 -6.82769,6.71348 -13.79826,13.50409 -26.56414,19.53834 -8.31116,4.34765 -17.22741,8.82371 -30.33825,12.11878 -4.83863,0.70724 -17.59998,3.07082 -19.2334,1.30394 19.6029,-6.0758 32.3185,-13.67149 43.27126,-21.24326 5.74958,-5.18724 10.63802,-10.46816 17.35901,-15.558 2.98304,-4.78101 6.94688,-9.51377 11.91807,-14.15855 4.8379,-5.86252 10.10489,-11.7373 11.74525,-17.75003 3.95613,-2.91348 16.56793,-2.67407 24.32421,-4.21908 z" />
      </g>
    </g>
  </g>
  <metadata
     id="metadata105">
    <rdf:RDF>
      <cc:Work>
        <dc:format>image/svg+xml</dc:format>
        <dc:type
           rdf:resource="http://purl.org/dc/dcmitype/StillImage" />
        <cc:license
           rdf:resource="http://creativecommons.org/publicdomain/zero/1.0/" />
        <dc:publisher>
          <cc:Agent
             rdf:about="http://openclipart.org/">
            <dc:title>Openclipart</dc:title>
          </cc:Agent>
        </dc:publisher>
        <dc:title />
        <dc:date>2008-07-24T13:53:29</dc:date>
        <dc:description>A few wheat sheaths that I drew to decorate a flier for a harvest celebration</dc:description>
        <dc:source>https://openclipart.org/detail/18082/wheat-by-davosmith</dc:source>
        <dc:creator>
          <cc:Agent>
            <dc:title>davosmith</dc:title>
          </cc:Agent>
        </dc:creator>
        <dc:subject>
          <rdf:Bag>
            <rdf:li>cereal</rdf:li>
            <rdf:li>crop</rdf:li>
            <rdf:li>food</rdf:li>
            <rdf:li>grain</rdf:li>
            <rdf:li>harvest</rdf:li>
            <rdf:li>plant</rdf:li>
            <rdf:li>wheat</rdf:li>
          </rdf:Bag>
        </dc:subject>
      </cc:Work>
      <cc:License
         rdf:about="http://creativecommons.org/publicdomain/zero/1.0/">
        <cc:permits
           rdf:resource="http://creativecommons.org/ns#Reproduction" />
        <cc:permits
           rdf:resource="http://creativecommons.org/ns#Distribution" />
        <cc:permits
           rdf:resource="http://creativecommons.org/ns#DerivativeWorks" />
      </cc:License>
    </rdf:RDF>
  </metadata>
</svg>
